<?xml version="1.0" encoding="utf-8"?>
<!-- Generator: Adobe Illustrator 28.0.0, SVG Export Plug-In . SVG Version: 6.00 Build 0)  -->
<svg version="1.1" id="map_1" xmlns="http://www.w3.org/2000/svg" xmlns:xlink="http://www.w3.org/1999/xlink" x="0px" y="0px"
	 viewBox="0 0 200 200" style="enable-background:new 0 0 200 200;" xml:space="preserve">
<style type="text/css">
	.st0{fill:#FFFFFF;}
</style>
<g>
	<path class="st0" d="M99.99,186.44c-0.67,0-1.33-0.17-1.94-0.52l-71.5-41.28c-1.2-0.7-1.94-1.97-1.94-3.35V58.71
		c0-1.38,0.73-2.66,1.94-3.35l71.5-41.28c1.2-0.69,2.68-0.69,3.88,0l71.51,41.28c1.2,0.69,1.94,1.97,1.94,3.35v82.57
		c0,1.38-0.74,2.65-1.94,3.35l-71.51,41.28C101.34,186.26,100.67,186.44,99.99,186.44z M32.37,139.05l67.62,39.04l67.63-39.04V60.95
		L99.99,21.91L32.37,60.95V139.05z"/>
	<path class="st0" d="M171.5,145.16c-0.67,0-1.33-0.17-1.94-0.52l-143-82.56c-1.85-1.08-2.49-3.44-1.41-5.3
		c1.07-1.85,3.43-2.49,5.29-1.41l143,82.56c1.85,1.08,2.49,3.45,1.42,5.3C174.13,144.47,172.83,145.16,171.5,145.16z"/>
	<path class="st0" d="M28.5,145.16c-1.35,0-2.65-0.69-3.36-1.94c-1.08-1.85-0.44-4.22,1.41-5.3l143-82.56
		c1.85-1.08,4.22-0.44,5.3,1.41c1.07,1.86,0.43,4.22-1.42,5.3l-143,82.56C29.82,144.99,29.15,145.16,28.5,145.16z"/>
	<path class="st0" d="M99.99,186.44c-2.13,0-3.88-1.73-3.88-3.88V17.44c0-2.14,1.74-3.88,3.88-3.88c2.15,0,3.87,1.73,3.87,3.88
		v165.12C103.87,184.7,102.14,186.44,99.99,186.44z"/>
	<path class="st0" d="M117.44,100c0-9.63-7.8-17.44-17.45-17.44c-9.62,0-17.43,7.81-17.43,17.44c0,9.63,7.81,17.44,17.43,17.44
		C109.64,117.44,117.44,109.63,117.44,100z"/>
	<path class="st0" d="M117.44,17.44c0-9.63-7.8-17.44-17.45-17.44c-9.62,0-17.43,7.81-17.43,17.44c0,9.63,7.81,17.43,17.43,17.43
		C109.64,34.87,117.44,27.07,117.44,17.44z"/>
	<path class="st0" d="M188.94,58.71c0-9.63-7.82-17.43-17.44-17.43c-9.63,0-17.44,7.81-17.44,17.43c0,9.64,7.81,17.45,17.44,17.45
		C181.12,76.16,188.94,68.35,188.94,58.71z"/>
	<path class="st0" d="M188.94,141.29c0-9.64-7.82-17.44-17.44-17.44c-9.63,0-17.44,7.8-17.44,17.44c0,9.63,7.81,17.44,17.44,17.44
		C181.12,158.72,188.94,150.91,188.94,141.29z"/>
	<path class="st0" d="M117.44,182.56c0-9.63-7.8-17.44-17.45-17.44c-9.62,0-17.43,7.81-17.43,17.44c0,9.62,7.81,17.44,17.43,17.44
		C109.64,200,117.44,192.18,117.44,182.56z"/>
	<path class="st0" d="M45.94,141.29c0-9.64-7.82-17.44-17.45-17.44c-9.63,0-17.42,7.8-17.42,17.44c0,9.61,7.8,17.43,17.42,17.43
		C38.12,158.71,45.94,150.9,45.94,141.29z"/>
	<path class="st0" d="M45.94,58.71c0-9.62-7.82-17.43-17.45-17.43c-9.63,0-17.42,7.81-17.42,17.43c0,9.64,7.8,17.44,17.42,17.44
		C38.12,76.15,45.94,68.35,45.94,58.71z"/>
</g>
</svg>
