<?xml version="1.0" encoding="utf-8"?>
<!-- Generator: Adobe Illustrator 28.0.0, SVG Export Plug-In . SVG Version: 6.00 Build 0)  -->
<svg version="1.1" id="map_1" xmlns="http://www.w3.org/2000/svg" xmlns:xlink="http://www.w3.org/1999/xlink" x="0px" y="0px"
	 viewBox="0 0 200 200" style="enable-background:new 0 0 200 200;" xml:space="preserve">
<style type="text/css">
	.st0{fill:#FFFFFF;}
</style>
<g>
	<path class="st0" d="M127.4,95.6c-3,2.3-2.3,7.1,1.3,8.4c33.9,12.1,56.4,44.2,56.4,80.1c4.8,0,9.7,0,14.5,0
		c0-36.7-20.2-70.5-52.6-87.8C177.5,57.1,149.6,0,99.9,0c-49.7,0-77.6,57.2-47,96.4c-32.3,17.3-52.5,51.1-52.5,87.7
		c4.8,0,9.6,0,14.5,0c0-35.9,22.6-68,56.4-80.1c3.6-1.3,4.3-6.1,1.3-8.4C38.2,69.4,56.7,14.5,99.9,14.5
		C143.2,14.5,161.7,69.3,127.4,95.6z"/>
	<path class="st0" d="M106.9,188.6c0-6.3-5.1-11.4-11.4-11.4c-6.3,0-11.4,5.1-11.4,11.4c0,6.3,5.1,11.4,11.4,11.4
		C101.7,200,106.9,194.9,106.9,188.6z"/>
	<path class="st0" d="M87.2,157.8c-5.7,9.6,7.2,19.4,14.9,11.3c1.8-1.8,3.6-2.9,6.1-3.3c33.2-6.2,28.6-55.1-5.1-55.1
		c-6.1,0-12.3,0-18.4,0c-5.2,0-9.4,4.2-9.4,9.4c0,5.2,4.2,9.4,9.4,9.4c5.5,0,11,0,16.6,0c11.9,0,13.1,16.1,1.4,17.9
		C95.3,148.5,90.9,151.5,87.2,157.8z"/>
</g>
</svg>
