<?xml version="1.0" encoding="utf-8"?>
<!-- Generator: Adobe Illustrator 28.0.0, SVG Export Plug-In . SVG Version: 6.00 Build 0)  -->
<svg version="1.1" id="map_1" xmlns="http://www.w3.org/2000/svg" xmlns:xlink="http://www.w3.org/1999/xlink" x="0px" y="0px"
	 viewBox="0 0 200 200" style="enable-background:new 0 0 200 200;" xml:space="preserve">
<style type="text/css">
	.st0{fill:#FFFFFF;}
</style>
<path class="st0" d="M108.1,118c0-3.3,0-6.6,0-9.9c4,0,8,0,11.9,0c8.6,0,15.2,1.3,19.3,6s5.6,13,5.6,21.3c0,8.3-1.5,16.5-5.6,21.3
	c-4.1,4.8-10.7,6-19.3,6c-13.4,0-26.8,0-40.2,0c-8.6,0-15.2-1.3-19.3-6c-3.4-4-5-10.4-5.4-17.3c-0.4-5.8-2.9-8-8.6-7.6
	s-8,2.9-7.6,8.6c0.1,1.3,0.2,2.5,0.3,3.8c0.2,1.5,0.4,3,0.7,4.5c0.3,1.5,0.6,3,1.1,4.5c0.4,1.6,0.9,3.1,1.6,4.6
	c0.6,1.6,1.4,3.1,2.2,4.6c0.9,1.6,1.9,3.1,3.1,4.5c0.7,0.8,1.4,1.6,2.1,2.4c1.3,1.3,2.8,2.5,4.3,3.6c1,0.7,2,1.3,3.1,1.8
	c1.5,0.8,3.1,1.5,4.7,2c1.5,0.5,3.1,0.9,4.6,1.3c1.5,0.3,3,0.6,4.5,0.7c1.5,0.2,2.9,0.3,4.4,0.4c1.4,0.1,2.9,0.1,4.3,0.1
	c4,0,8,0,11.9,0c0,4.3,0,8.5,0,12.8c0,5.8,2.4,8.1,8.1,8.1s8.1-2.4,8.1-8.1c0-4.3,0-8.5,0-12.8c4,0,8,0,11.9,0c1.4,0,2.9,0,4.3-0.1
	c1.5-0.1,2.9-0.2,4.4-0.4c1.5-0.2,3-0.4,4.5-0.7c1.6-0.3,3.1-0.8,4.6-1.3c1.6-0.6,3.2-1.2,4.7-2c1.1-0.6,2.1-1.2,3.1-1.8
	c1.5-1.1,3-2.2,4.3-3.6c0.8-0.8,1.5-1.5,2.1-2.4c1.1-1.4,2.2-2.9,3.1-4.5c0.8-1.5,1.6-3,2.2-4.6c0.6-1.5,1.1-3,1.5-4.6
	c0.4-1.5,0.8-3,1.1-4.5c0.3-1.5,0.5-3,0.7-4.5c0.3-2.9,0.5-5.9,0.5-8.8s-0.1-5.9-0.5-8.8c-0.2-1.5-0.4-3-0.7-4.5
	c-0.3-1.5-0.6-3-1.1-4.5c-0.4-1.5-1-3.1-1.5-4.5c-0.6-1.6-1.4-3.1-2.2-4.6c-0.9-1.6-1.9-3.1-3.1-4.5c-0.7-0.8-1.4-1.6-2.1-2.3
	c-1.3-1.3-2.8-2.5-4.3-3.5c-1-0.7-2-1.3-3.1-1.8c-1.5-0.8-3.1-1.5-4.7-2c-1.5-0.5-3.1-0.9-4.6-1.3c-1.5-0.3-3-0.6-4.5-0.7
	c-1.5-0.2-2.9-0.3-4.4-0.4c-1.4-0.1-2.9-0.1-4.3-0.1c-4,0-8,0-11.9,0c0-3.3,0-6.6,0-9.9c0-5.8-2.4-8.1-8.1-8.1s-8.1,2.4-8.1,8.1
	c0,3.3,0,6.6,0,9.9c-4,0-8,0-11.9,0c-8.6,0-15.2-1.3-19.3-6c-4.1-4.8-5.6-13-5.6-21.3s1.5-16.5,5.6-21.3c4.1-4.8,10.7-6,19.3-6
	c13.4,0,26.8,0,40.2,0c8.6,0,15.2,1.3,19.3,6c3.4,4,5,10.4,5.4,17.3c0.4,5.7,2.9,8,8.6,7.6c5.8-0.4,8-2.9,7.6-8.6
	c-0.1-1.2-0.2-2.5-0.3-3.8c-0.2-1.5-0.4-3-0.7-4.5c-0.3-1.5-0.6-3-1.1-4.5c-0.4-1.6-1-3.1-1.5-4.6c-0.6-1.6-1.4-3.1-2.2-4.6
	c-0.9-1.6-1.9-3.1-3.1-4.5c-0.7-0.8-1.4-1.6-2.1-2.3c-1.3-1.3-2.8-2.5-4.3-3.5c-1-0.7-2-1.3-3.1-1.8c-1.5-0.8-3.1-1.5-4.7-2
	c-1.5-0.5-3.1-0.9-4.6-1.3c-1.5-0.3-3-0.6-4.5-0.7c-1.5-0.2-2.9-0.3-4.4-0.4c-1.4-0.1-2.9-0.1-4.3-0.1c-4,0-8,0-11.9,0
	c0-4.3,0-8.5,0-12.8c0-5.8-2.4-8.1-8.1-8.1s-8.1,2.4-8.1,8.1c0,4.3,0,8.5,0,12.8c-4,0-8,0-11.9,0c-1.4,0-2.9,0-4.3,0.1
	c-1.5,0.1-2.9,0.2-4.4,0.4c-1.5,0.2-3,0.4-4.5,0.7c-1.6,0.3-3.1,0.8-4.6,1.3c-1.6,0.6-3.2,1.2-4.7,2c-1.1,0.6-2.1,1.2-3.1,1.8
	c-1.6,1-3,2.2-4.3,3.5c-0.8,0.7-1.5,1.5-2.1,2.3c-1.1,1.4-2.2,2.9-3.1,4.5c-0.8,1.5-1.6,3-2.2,4.6c-0.6,1.5-1.1,3-1.6,4.6
	c-0.4,1.5-0.8,3-1.1,4.5c-0.3,1.5-0.5,3-0.7,4.5c-0.3,2.9-0.5,5.8-0.5,8.8c0,2.9,0.1,5.9,0.5,8.8c0.2,1.5,0.4,3,0.7,4.5
	c0.3,1.5,0.6,3,1.1,4.5c0.4,1.6,0.9,3.1,1.6,4.5c0.6,1.6,1.4,3.1,2.2,4.6c0.9,1.6,1.9,3.1,3.1,4.5c0.7,0.8,1.4,1.6,2.1,2.3
	c1.3,1.3,2.8,2.5,4.3,3.5c1,0.7,2,1.3,3.1,1.8c1.5,0.8,3.1,1.5,4.7,2c1.5,0.5,3.1,0.9,4.6,1.3c1.5,0.3,3,0.6,4.5,0.7
	c1.5,0.2,2.9,0.3,4.4,0.4c1.4,0.1,2.9,0.1,4.3,0.1c4,0,8,0,11.9,0c0,3.3,0,6.6,0,9.9c0,5.8,2.4,8.1,8.1,8.1
	C105.8,126.2,108.1,123.8,108.1,118z"/>
</svg>
