<?xml version="1.0" encoding="UTF-8"?>
<svg id="_图层_1" data-name=" 图层 1" xmlns="http://www.w3.org/2000/svg" viewBox="0 0 700 361.92">
  <defs>
    <style>
      .cls-1 {
        fill: #939393;
        stroke-width: 0px;
      }
    </style>
  </defs>
  <path class="cls-1" d="m359.73,228.5c-62.99,0-114.25-51.26-114.25-114.25S296.73,0,359.73,0s114.25,51.26,114.25,114.25-51.26,114.25-114.25,114.25Zm0-225.01c-61.07,0-110.76,49.68-110.76,110.76s49.68,110.76,110.76,110.76,110.76-49.68,110.76-110.76S420.8,3.49,359.73,3.49Z"/>
  <path class="cls-1" d="m359.73,221.16c-69.89,0-126.76-47.96-126.76-106.91S289.84,7.34,359.73,7.34s126.76,47.96,126.76,106.91-56.87,106.91-126.76,106.91h0Zm0-210.31c-67.97,0-123.26,46.39-123.26,103.41s55.29,103.41,123.26,103.41,123.26-46.39,123.26-103.41S427.7,10.84,359.73,10.84h0Z"/>
  <path class="cls-1" d="m359.73,214.5c-37.17,0-72.14-10.36-98.46-29.18-26.5-18.94-41.1-44.18-41.1-71.07s14.6-52.14,41.1-71.08c26.32-18.82,61.3-29.17,98.46-29.17s72.14,10.36,98.46,29.17c26.5,18.94,41.1,44.18,41.1,71.08s-14.6,52.14-41.1,71.07c-26.32,18.82-61.3,29.18-98.46,29.18h0Zm0-197.01c-75.03,0-136.07,43.41-136.07,96.76s61.04,96.76,136.07,96.76,136.07-43.41,136.07-96.76-61.05-96.76-136.07-96.76Z"/>
  <path class="cls-1" d="m359.73,207.18c-40.56,0-78.72-9.57-107.45-26.96-29.01-17.55-44.98-40.98-44.98-65.97s15.97-48.42,44.98-65.97c28.73-17.39,66.89-26.96,107.45-26.96s78.72,9.57,107.45,26.96c29.01,17.55,44.97,40.98,44.97,65.97s-15.97,48.42-44.97,65.97c-28.73,17.39-66.89,26.96-107.45,26.96Zm0-182.36c-82.13,0-148.94,40.12-148.94,89.44s66.81,89.44,148.94,89.44,148.94-40.12,148.94-89.44S441.86,24.82,359.73,24.82Z"/>
  <path class="cls-1" d="m359.73,200.19c-43.99,0-85.39-8.83-116.55-24.86-31.53-16.22-48.89-37.91-48.89-61.09s17.36-44.87,48.89-61.09c31.16-16.03,72.55-24.86,116.55-24.86s85.39,8.83,116.55,24.86c31.53,16.22,48.89,37.91,48.89,61.09s-17.36,44.87-48.89,61.09c-31.16,16.03-72.55,24.86-116.55,24.86h0Zm0-168.38c-89.3,0-161.96,36.99-161.96,82.45s72.65,82.45,161.96,82.45,161.96-36.99,161.96-82.45S449.03,31.81,359.73,31.81Z"/>
  <path class="cls-1" d="m359.73,192.86c-47.4,0-91.99-8.05-125.55-22.66-34.02-14.81-52.76-34.69-52.76-55.95s18.74-41.14,52.76-55.95c33.56-14.61,78.15-22.66,125.55-22.66s91.99,8.05,125.55,22.66c34.02,14.81,52.76,34.69,52.76,55.95s-18.74,41.14-52.76,55.95c-33.56,14.61-78.15,22.66-125.55,22.66Zm0-153.73c-46.93,0-91.02,7.95-124.15,22.37-32.67,14.22-50.67,32.95-50.67,52.75s17.99,38.52,50.67,52.75c33.14,14.42,77.23,22.37,124.15,22.37s91.02-7.95,124.15-22.37c32.67-14.22,50.67-32.95,50.67-52.75s-17.99-38.52-50.67-52.75c-33.14-14.42-77.23-22.37-124.15-22.37Z"/>
  <path class="cls-1" d="m359.73,185.34c-50.84,0-98.65-7.25-134.64-20.41-36.55-13.37-56.68-31.36-56.68-50.68s20.12-37.31,56.68-50.68c35.99-13.16,83.81-20.41,134.64-20.41s98.65,7.25,134.64,20.41c36.55,13.37,56.68,31.36,56.68,50.68s-20.12,37.31-56.68,50.68c-35.99,13.16-83.81,20.41-134.64,20.41Zm0-138.67c-50.43,0-97.82,7.18-133.43,20.2-35.06,12.82-54.36,29.65-54.36,47.37s19.31,34.55,54.36,47.37c35.62,13.03,83,20.2,133.43,20.2s97.82-7.18,133.44-20.2c35.06-12.82,54.36-29.65,54.36-47.37s-19.31-34.55-54.36-47.37c-35.62-13.03-83-20.2-133.44-20.2h0Z"/>
  <path class="cls-1" d="m359.73,177.83c-54.06,0-104.9-6.46-143.17-18.19-38.9-11.92-60.33-28.04-60.33-45.39s21.42-33.47,60.33-45.39c38.27-11.73,89.11-18.19,143.17-18.19s104.9,6.46,143.17,18.19c38.9,11.92,60.33,28.04,60.33,45.39s-21.42,33.47-60.33,45.39c-38.27,11.73-89.11,18.19-143.17,18.19Zm0-123.66c-53.71,0-104.19,6.41-142.14,18.04-36.77,11.27-57.85,26.6-57.85,42.05s21.09,30.78,57.85,42.05c37.94,11.63,88.42,18.04,142.14,18.04s104.19-6.41,142.14-18.04c36.77-11.27,57.85-26.6,57.85-42.05s-21.09-30.78-57.85-42.05c-37.94-11.63-88.42-18.04-142.14-18.04h0Z"/>
  <path class="cls-1" d="m359.73,170.85c-57.4,0-111.39-5.72-152.01-16.12-41.33-10.58-64.1-24.95-64.1-40.48s22.77-29.9,64.1-40.48c40.63-10.4,94.61-16.12,152.01-16.12s111.39,5.72,152.01,16.12c41.33,10.58,64.1,24.95,64.1,40.48s-22.77,29.9-64.1,40.48c-40.63,10.4-94.61,16.12-152.01,16.12Zm0-109.71c-57.12,0-110.8,5.69-151.15,16.01-39.07,10-61.47,23.52-61.47,37.1s22.4,27.1,61.47,37.1c40.35,10.33,94.03,16.01,151.15,16.01s110.8-5.69,151.15-16.01c39.07-10,61.47-23.52,61.47-37.1s-22.4-27.1-61.47-37.1c-40.35-10.33-94.03-16.01-151.15-16.01h0Z"/>
  <path class="cls-1" d="m359.73,163.16c-60.87,0-118.11-4.92-161.19-13.85-31.03-6.44-68.01-17.74-68.01-35.06s36.99-28.63,68.01-35.06c43.07-8.93,100.32-13.85,161.19-13.85s118.11,4.92,161.19,13.85c31.03,6.44,68.01,17.74,68.01,35.06s-36.99,28.63-68.01,35.06c-43.07,8.93-100.32,13.85-161.19,13.85Zm0-94.33c-60.64,0-117.63,4.89-160.48,13.78-41.45,8.59-65.22,20.13-65.22,31.64s23.77,23.05,65.22,31.64c42.85,8.88,99.84,13.78,160.48,13.78s117.63-4.89,160.48-13.78c41.45-8.59,65.22-20.13,65.22-31.64s-23.77-23.05-65.22-31.64c-42.85-8.88-99.84-13.78-160.48-13.78h0Z"/>
  <path class="cls-1" d="m359.73,155.48c-64.39,0-124.95-4.12-170.5-11.59-32.84-5.39-71.97-14.9-71.97-29.64s39.14-24.25,71.97-29.64c45.56-7.47,106.11-11.59,170.5-11.59s124.95,4.12,170.5,11.59c32.84,5.39,71.97,14.9,71.97,29.64s-39.14,24.25-71.97,29.64c-45.56,7.47-106.11,11.59-170.5,11.59Zm0-78.96c-64.21,0-124.56,4.1-169.94,11.54-43.23,7.09-69.05,16.88-69.05,26.19s25.81,19.1,69.05,26.19c45.38,7.44,105.73,11.54,169.94,11.54s124.56-4.1,169.94-11.54c43.23-7.09,69.05-16.88,69.05-26.19s-25.81-19.1-69.05-26.19c-45.38-7.44-105.73-11.54-169.94-11.54Z"/>
  <path class="cls-1" d="m51.66,360.94v-26.65c0-1.13-.91-2.04-2.04-2.04H4.37c-.63,0-1.2-.11-1.73-.34-.55-.24-1.01-.55-1.41-.94-.39-.38-.68-.83-.91-1.37-.22-.54-.33-1.1-.33-1.71v-33.06h8.65v26.65c0,1.13.91,2.04,2.04,2.04h38.93c1.13,0,2.04-.91,2.04-2.04v-26.65h8.75v66.13h-8.75Z"/>
  <path class="cls-1" d="m95.15,360.94c-1.56,0-3.31-.28-5.2-.85-1.83-.54-3.54-1.45-5.11-2.7-1.55-1.24-2.87-2.88-3.92-4.89-1.03-1.96-1.55-4.45-1.55-7.4v-45.93c0-.61.11-1.18.33-1.71.23-.55.53-1.01.92-1.42.38-.39.82-.69,1.36-.91.54-.22,1.11-.33,1.76-.33h55.29v8.65h-48.98c-1.13,0-2.04.91-2.04,2.04v39.61c0,2.22.65,3.99,1.92,5.26,1.27,1.27,3.06,1.92,5.31,1.92h43.79v8.65h-43.89Zm2.04-28.69v-8.75h36.12v8.75h-36.12Z"/>
  <path class="cls-1" d="m184.65,361.92c-.83,0-1.57-.21-2.28-.65-.72-.45-1.26-1.02-1.65-1.74l-31.73-64.72h9.7l24.12,49.43c.34.7,1.05,1.15,1.83,1.15h0c.78,0,1.49-.44,1.83-1.14l24.22-49.44h9.65l-31.8,64.77c-.35.69-.86,1.25-1.57,1.69-.7.44-1.47.65-2.33.65Z"/>
  <path class="cls-1" d="m248.35,360.94c-1.56,0-3.31-.28-5.2-.85-1.83-.54-3.54-1.45-5.11-2.7-1.55-1.24-2.87-2.88-3.92-4.89-1.03-1.96-1.55-4.45-1.55-7.4v-45.93c0-.61.11-1.18.33-1.71.23-.55.53-1.01.92-1.42.38-.39.82-.69,1.36-.91.54-.22,1.11-.33,1.76-.33h55.29v8.65h-48.98c-1.13,0-2.04.91-2.04,2.04v39.61c0,2.22.65,3.99,1.92,5.26,1.27,1.27,3.06,1.92,5.31,1.92h43.79v8.65h-43.89Zm2.04-28.69v-8.75h36.12v8.75h-36.12Z"/>
  <path class="cls-1" d="m360.85,360.94l-25.96-22.47c-.37-.32-.85-.5-1.34-.5h-7.11v-8.65h26.75c.05,0,.11,0,.16,0,1.8-.15,3.48-.53,4.99-1.15,1.55-.63,2.92-1.5,4.06-2.59,1.17-1.11,2.09-2.47,2.71-4.02.62-1.53.93-3.28.93-5.2v-8.03c0-1.04-.15-1.86-.47-2.52-.34-.72-.82-1.28-1.41-1.66-.56-.36-1.15-.57-1.78-.64-.39-.04-.75-.06-1.07-.06h-42.01c-1.13,0-2.04.91-2.04,2.04v55.44h-8.65v-61.76c0-.61.11-1.17.33-1.71.23-.55.53-1.01.93-1.42.38-.39.82-.69,1.36-.91.54-.22,1.11-.33,1.76-.33h48.33c2.49,0,4.59.44,6.25,1.31,1.69.89,3.08,2.01,4.12,3.33,1.06,1.34,1.83,2.8,2.29,4.34.48,1.6.72,3.1.72,4.46v8.13c0,2.68-.33,5.1-.98,7.17-.65,2.08-1.54,3.92-2.64,5.49-1.1,1.57-2.38,2.93-3.81,4.04-1.47,1.14-3.02,2.09-4.62,2.82-1.6.73-3.22,1.27-4.84,1.59-1.63.33-3.19.5-4.62.5-.85,0-1.62.53-1.91,1.33-.3.8-.07,1.7.58,2.26l22.44,19.38h-13.44Z"/>
  <path class="cls-1" d="m395.93,360.94c-.65,0-1.22-.11-1.76-.33-.54-.23-.99-.52-1.37-.91s-.68-.83-.91-1.37c-.22-.54-.33-1.11-.33-1.76v-61.76h8.65v55.44c0,1.13.91,2.04,2.04,2.04h49.71v8.65h-56.03Z"/>
  <path class="cls-1" d="m521.55,360.94v-15.19c0-1.13-.91-2.04-2.04-2.04h-44.75c-1.13,0-2.04.91-2.04,2.04v15.19h-8.65v-33.06c0-4.84.84-9.34,2.49-13.38,1.65-4.03,3.97-7.54,6.89-10.44,2.93-2.89,6.44-5.19,10.45-6.81,4.01-1.62,8.47-2.45,13.24-2.45h28.69c.61,0,1.18.11,1.71.33s1,.53,1.4.93.7.86.93,1.4c.22.54.33,1.1.33,1.71v61.76h-8.65Zm-24.42-57.48c-.3,0-.89.02-2.66.18-1.38.13-2.96.44-4.72.92-1.78.49-3.67,1.25-5.61,2.26-2.03,1.05-3.92,2.52-5.61,4.35-1.7,1.84-3.11,4.15-4.19,6.87-1.09,2.73-1.64,6.04-1.64,9.84v5.14c0,1.13.91,2.04,2.04,2.04h44.75c1.13,0,2.04-.91,2.04-2.04v-27.52c0-1.13-.91-2.04-2.04-2.04h-22.38Z"/>
  <path class="cls-1" d="m610.77,361.92c-.54,0-1.1-.11-1.67-.31-.51-.19-.95-.48-1.35-.91l-46.52-48.58c-.39-.41-.93-.63-1.47-.63-.26,0-.51.05-.76.15-.77.31-1.28,1.06-1.28,1.89v47.41h-8.65v-62.74c0-.89.24-1.67.74-2.39.53-.76,1.18-1.31,1.99-1.68.48-.19,1.04-.31,1.61-.31.29,0,.58.03.88.09.86.17,1.58.56,2.2,1.2l46.51,48.52c.39.41.93.63,1.47.63.26,0,.51-.05.76-.15.77-.31,1.28-1.06,1.28-1.89v-47.41h8.65v62.74c0,.64-.11,1.2-.34,1.73-.24.55-.55,1.01-.94,1.41s-.83.68-1.38.91c-.54.22-1.1.33-1.71.33Z"/>
  <path class="cls-1" d="m638.29,360.94c-.65,0-1.22-.11-1.76-.33-.54-.23-.99-.52-1.38-.91s-.68-.83-.9-1.37c-.23-.54-.33-1.11-.33-1.76v-57.38c0-.61.11-1.17.33-1.71.23-.55.53-1.01.92-1.42.38-.39.82-.69,1.36-.91.54-.22,1.11-.33,1.76-.33h34.37c3.92,0,7.6.69,10.93,2.05,3.32,1.36,6.23,3.26,8.64,5.65,2.41,2.39,4.32,5.3,5.7,8.63,1.38,3.34,2.07,7.04,2.07,11v11.46c0,3.99-.7,7.69-2.07,11.02-1.37,3.32-3.29,6.22-5.7,8.61-2.41,2.39-5.31,4.29-8.64,5.65-3.33,1.36-7.01,2.05-10.93,2.05h-34.37Zm6.32-57.48c-1.13,0-2.04.91-2.04,2.04v44.75c0,1.13.91,2.04,2.04,2.04h28.06c2.72,0,5.26-.45,7.53-1.34,2.29-.9,4.3-2.19,5.95-3.83,1.66-1.64,2.97-3.65,3.87-5.94.89-2.27,1.34-4.82,1.34-7.58v-11.46c0-2.72-.45-5.26-1.34-7.55-.9-2.32-2.2-4.33-3.87-5.98-1.66-1.64-3.66-2.93-5.95-3.83-2.27-.89-4.8-1.34-7.53-1.34h-28.06Z"/>
</svg>