<?xml version="1.0" encoding="UTF-8"?>
<svg id="_图层_1" data-name="图层 1" xmlns="http://www.w3.org/2000/svg" viewBox="0 0 700 340">
  <defs>
    <style>
      .cls-1 {
        fill: #939393;
        stroke-width: 0px;
      }
    </style>
  </defs>
  <path class="cls-1" d="m350,333.5c-90.15,0-163.5-73.35-163.5-163.5S259.85,6.5,350,6.5s163.5,73.35,163.5,163.5-73.35,163.5-163.5,163.5Zm0-322c-87.4,0-158.5,71.1-158.5,158.5s71.1,158.5,158.5,158.5,158.5-71.1,158.5-158.5S437.4,11.5,350,11.5Z"/>
  <path class="cls-1" d="m350,322.99c-100.02,0-181.4-68.63-181.4-152.99S249.98,17.01,350,17.01s181.4,68.63,181.4,152.99-81.38,152.99-181.4,152.99Zm0-300.97c-97.27,0-176.4,66.39-176.4,147.99s79.13,147.99,176.4,147.99,176.4-66.39,176.4-147.99S447.27,22.01,350,22.01Z"/>
  <path class="cls-1" d="m350,313.47c-53.2,0-103.24-14.83-140.91-41.76-37.93-27.11-58.81-63.23-58.81-101.71s20.89-74.61,58.81-101.72c37.67-26.93,87.72-41.75,140.91-41.75s103.24,14.83,140.91,41.75c37.93,27.11,58.81,63.23,58.81,101.72s-20.89,74.61-58.81,101.71c-37.67,26.93-87.72,41.76-140.91,41.76Zm0-281.94c-107.37,0-194.73,62.12-194.73,138.47s87.35,138.47,194.73,138.47,194.73-62.12,194.73-138.47S457.37,31.53,350,31.53Z"/>
  <path class="cls-1" d="m350,302.99c-58.05,0-112.66-13.7-153.77-38.58-41.51-25.12-64.37-58.64-64.37-94.41s22.86-69.29,64.37-94.41c41.11-24.88,95.72-38.58,153.77-38.58s112.66,13.7,153.77,38.58c41.51,25.12,64.36,58.64,64.36,94.41s-22.86,69.29-64.36,94.41c-41.11,24.88-95.73,38.58-153.77,38.58Zm0-260.97c-117.53,0-213.14,57.41-213.14,127.99s95.61,127.99,213.14,127.99,213.14-57.42,213.14-127.99-95.61-127.99-213.14-127.99Z"/>
  <path class="cls-1" d="m350,292.99c-62.96,0-122.2-12.63-166.79-35.57-45.12-23.21-69.97-54.25-69.97-87.42s24.85-64.21,69.97-87.42c44.59-22.94,103.83-35.57,166.79-35.57s122.2,12.63,166.79,35.57c45.12,23.21,69.97,54.25,69.97,87.42s-24.85,64.21-69.97,87.42c-44.59,22.94-103.83,35.57-166.79,35.57Zm0-240.97c-127.8,0-231.77,52.93-231.77,117.99s103.97,117.99,231.77,117.99,231.77-52.93,231.77-117.99-103.97-117.99-231.77-117.99Z"/>
  <path class="cls-1" d="m350,282.5c-67.83,0-131.64-11.52-179.67-32.43-48.69-21.2-75.51-49.64-75.51-80.07s26.82-58.88,75.51-80.07c48.03-20.91,111.84-32.43,179.67-32.43s131.64,11.52,179.67,32.43c48.69,21.2,75.51,49.64,75.51,80.07s-26.82,58.88-75.51,80.07c-48.03,20.91-111.84,32.43-179.67,32.43Zm0-220c-67.16,0-130.26,11.37-177.67,32.01-46.76,20.35-72.51,47.16-72.51,75.49s25.75,55.13,72.51,75.49c47.42,20.64,110.52,32.01,177.67,32.01s130.26-11.37,177.67-32.01c46.76-20.35,72.51-47.16,72.51-75.49s-25.75-55.13-72.51-75.49c-47.42-20.64-110.52-32.01-177.67-32.01Z"/>
  <path class="cls-1" d="m350,271.73c-72.75,0-141.18-10.38-192.68-29.21-52.3-19.13-81.11-44.88-81.11-72.52s28.8-53.39,81.11-72.52c51.51-18.84,119.94-29.21,192.68-29.21s141.18,10.38,192.68,29.21c52.3,19.13,81.11,44.88,81.11,72.52s-28.8,53.39-81.11,72.52c-51.51,18.84-119.94,29.21-192.68,29.21Zm0-198.44c-72.17,0-139.99,10.27-190.95,28.91-50.17,18.35-77.8,42.43-77.8,67.79s27.63,49.45,77.8,67.79c50.97,18.64,118.78,28.91,190.95,28.91s139.99-10.27,190.96-28.91c50.17-18.35,77.8-42.43,77.8-67.79s-27.63-49.45-77.8-67.79c-50.97-18.64-118.78-28.91-190.96-28.91Z"/>
  <path class="cls-1" d="m350,260.99c-77.36,0-150.12-9.24-204.88-26.03-55.67-17.06-86.33-40.13-86.33-64.96s30.66-47.9,86.33-64.96c54.76-16.78,127.52-26.03,204.88-26.03s150.12,9.24,204.88,26.03c55.67,17.06,86.33,40.13,86.33,64.96s-30.66,47.9-86.33,64.96c-54.76,16.78-127.52,26.03-204.88,26.03Zm0-176.97c-76.87,0-149.11,9.17-203.41,25.81-52.62,16.13-82.79,38.06-82.79,60.18s30.18,44.05,82.79,60.18c54.3,16.64,126.54,25.81,203.41,25.81s149.11-9.17,203.41-25.81c52.62-16.13,82.79-38.06,82.79-60.18s-30.18-44.05-82.79-60.18c-54.3-16.64-126.54-25.81-203.41-25.81Z"/>
  <path class="cls-1" d="m350,251c-82.14,0-159.4-8.19-217.54-23.07-59.15-15.14-91.73-35.71-91.73-57.93s32.58-42.79,91.73-57.93c58.14-14.88,135.39-23.07,217.54-23.07s159.4,8.19,217.54,23.07c59.15,15.14,91.73,35.71,91.73,57.93s-32.58,42.79-91.73,57.93c-58.14,14.88-135.4,23.07-217.54,23.07Zm0-157c-81.74,0-158.56,8.14-216.3,22.91-55.91,14.31-87.97,33.66-87.97,53.09s32.06,38.78,87.97,53.09c57.74,14.78,134.56,22.91,216.3,22.91s158.56-8.14,216.3-22.91c55.91-14.31,87.97-33.66,87.97-53.09s-32.06-38.78-87.97-53.09c-57.75-14.78-134.56-22.91-216.3-22.91Z"/>
  <path class="cls-1" d="m350,240c-87.11,0-169.03-7.04-230.67-19.82-44.4-9.21-97.33-25.39-97.33-50.18s52.93-40.97,97.33-50.18c61.64-12.78,143.56-19.82,230.67-19.82s169.03,7.04,230.67,19.82c44.4,9.21,97.33,25.39,97.33,50.18s-52.93,40.97-97.33,50.18c-61.64,12.78-143.56,19.82-230.67,19.82Zm0-135c-86.78,0-168.34,7-229.66,19.72-59.32,12.3-93.34,28.81-93.34,45.28s34.02,32.98,93.34,45.28c61.32,12.71,142.88,19.72,229.66,19.72s168.34-7,229.66-19.72c59.32-12.3,93.34-28.81,93.34-45.28s-34.02-32.98-93.34-45.28c-61.32-12.71-142.88-19.72-229.66-19.72Z"/>
  <path class="cls-1" d="m350,229c-92.15,0-178.81-5.89-244-16.58-46.99-7.71-103-21.32-103-42.42s56.01-34.71,103-42.42c65.2-10.69,151.85-16.58,244-16.58s178.81,5.89,244,16.58c46.99,7.71,103,21.32,103,42.42s-56.01,34.71-103,42.42c-65.2,10.69-151.85,16.58-244,16.58Zm0-113c-91.89,0-178.26,5.87-243.19,16.52-61.87,10.15-98.81,24.16-98.81,37.48s36.94,27.34,98.81,37.48c64.94,10.65,151.31,16.52,243.19,16.52s178.26-5.87,243.19-16.52c61.87-10.15,98.81-24.16,98.81-37.48s-36.94-27.34-98.81-37.48c-64.94-10.65-151.31-16.52-243.19-16.52Z"/>
</svg>