<?xml version="1.0" encoding="UTF-8"?>
<svg id="Layer_1" data-name="Layer 1" xmlns="http://www.w3.org/2000/svg" viewBox="0 0 700.69 200.43">
  <defs>
    <style>
      .cls-1 {
        fill: none;
        stroke: #939393;
        stroke-miterlimit: 10;
        stroke-width: 11px;
      }

      .cls-2 {
        fill: #939393;
        stroke-width: 0px;
      }
    </style>
  </defs>
  <path class="cls-2" d="m290.63,128.16c-.32-.61-.57-1.32-.8-2.14-.23-.8-.41-1.66-.55-2.55-.7.77-1.52,1.5-2.45,2.18-.93.68-1.95,1.27-3.11,1.82-1.11.5-2.34.89-3.7,1.16-1.36.32-2.82.45-4.41.45-2.57,0-4.93-.36-7.09-1.11-2.14-.75-3.98-1.77-5.52-3.11-1.55-1.32-2.75-2.91-3.61-4.73-.86-1.86-1.3-3.86-1.3-6.02,0-5.29,1.95-9.36,5.89-12.23,3.95-2.91,9.84-4.36,17.66-4.36h7.18v-2.98c0-2.41-.8-4.32-2.36-5.7-1.57-1.43-3.84-2.14-6.82-2.14-2.64,0-4.54.57-5.75,1.7-1.2,1.11-1.82,2.61-1.82,4.5h-12.88c0-2.14.45-4.16,1.39-6.07.95-1.91,2.34-3.59,4.14-5.04,1.82-1.45,4.02-2.59,6.64-3.43,2.64-.86,5.61-1.3,9-1.3,3.02,0,5.84.36,8.43,1.11,2.64.75,4.91,1.84,6.82,3.29s3.41,3.29,4.5,5.52c1.09,2.2,1.61,4.75,1.61,7.66v21.5c0,2.68.16,4.91.5,6.68s.84,3.27,1.48,4.54v.8h-13.04v-.02Zm-12.29-9.04c1.3,0,2.5-.16,3.61-.45,1.11-.32,2.11-.7,3.02-1.2.89-.5,1.66-1.05,2.32-1.66.66-.66,1.16-1.3,1.52-1.95v-8.64h-6.59c-2,0-3.73.2-5.14.61-1.43.36-2.59.91-3.48,1.61-.89.68-1.57,1.52-2,2.5-.43.95-.66,2-.66,3.16,0,1.73.61,3.16,1.82,4.32,1.25,1.14,3.11,1.7,5.57,1.7Z"/>
  <path class="cls-2" d="m352.32,77.08c1.95,0,3.75.14,5.39.41,1.66.25,3.02.52,4.02.84l-1.91,12.84c-1.7-.41-3.45-.7-5.23-.89-1.77-.23-3.45-.32-5.04-.32-3.61,0-6.52.7-8.7,2.09-2.16,1.39-3.79,3.39-4.86,5.98v30.13h-12.88v-50.15h12l.61,8.2c2.05-2.84,4.48-5.07,7.32-6.68,2.82-1.64,5.93-2.45,9.29-2.45Z"/>
  <path class="cls-2" d="m405.41,112.43l4.36-34.45h11.82l-9,50.15h-11.32l-6.59-31.88-6.34,31.88h-11.32l-9-50.15h11.77l4.36,34.59,6.29-34.59h8.61l6.34,34.45Z"/>
  <path class="cls-2" d="m454.67,129.09c-3.86,0-7.36-.64-10.52-1.91-3.16-1.27-5.86-2.98-8.11-5.14-2.25-2.2-4-4.75-5.23-7.7-1.2-2.98-1.82-6.14-1.82-9.5v-1.86c0-3.84.61-7.32,1.82-10.48,1.2-3.18,2.89-5.91,5.04-8.2s4.73-4.07,7.7-5.34c2.98-1.27,6.2-1.91,9.68-1.91s6.84.61,9.63,1.82c2.84,1.18,5.23,2.84,7.18,5,1.98,2.16,3.48,4.77,4.5,7.84,1.02,3.02,1.52,6.39,1.52,10.07v5.48h-34.02c.25,1.7.75,3.25,1.48,4.68.77,1.39,1.75,2.59,2.91,3.61,1.18,1.02,2.52,1.82,4.02,2.36,1.52.55,3.16.84,4.95.84,1.27,0,2.52-.11,3.75-.36,1.27-.25,2.48-.61,3.61-1.07,1.14-.5,2.2-1.09,3.2-1.82,1-.7,1.86-1.55,2.59-2.5l6.45,6.95c-.8,1.14-1.86,2.27-3.16,3.39-1.27,1.09-2.77,2.05-4.54,2.93-1.73.84-3.66,1.52-5.79,2.05-2.09.5-4.39.77-6.86.77Zm-1.52-41.58c-1.45,0-2.77.27-3.98.8-1.2.5-2.27,1.23-3.2,2.18-.89.95-1.66,2.09-2.27,3.43-.61,1.32-1.09,2.82-1.39,4.45h21.13v-1.02c-.07-1.36-.32-2.64-.8-3.84-.45-1.2-1.14-2.25-2-3.11-.86-.89-1.93-1.59-3.2-2.09-1.23-.52-2.66-.8-4.29-.8Z"/>
  <path class="cls-2" d="m518.68,128.16c-.32-.61-.57-1.32-.8-2.14-.2-.8-.41-1.66-.55-2.55-.7.77-1.52,1.5-2.45,2.18s-1.95,1.27-3.11,1.82c-1.11.5-2.34.89-3.7,1.16-1.36.32-2.82.45-4.41.45-2.57,0-4.93-.36-7.09-1.11-2.14-.75-3.98-1.77-5.52-3.11-1.55-1.32-2.75-2.91-3.61-4.73-.86-1.86-1.3-3.86-1.3-6.02,0-5.29,1.95-9.36,5.89-12.23,3.95-2.91,9.84-4.36,17.66-4.36h7.18v-2.98c0-2.41-.8-4.32-2.36-5.7-1.57-1.43-3.84-2.14-6.82-2.14-2.64,0-4.54.57-5.75,1.7-1.2,1.11-1.82,2.61-1.82,4.5h-12.86c0-2.14.45-4.16,1.39-6.07.95-1.91,2.34-3.59,4.14-5.04,1.82-1.45,4.02-2.59,6.64-3.43,2.64-.86,5.64-1.3,9-1.3,3.02,0,5.84.36,8.43,1.11,2.61.75,4.89,1.84,6.82,3.29s3.41,3.29,4.5,5.52c1.09,2.2,1.61,4.75,1.61,7.66v21.5c0,2.68.18,4.91.52,6.68s.84,3.27,1.48,4.54v.8h-13.09v-.02Zm-12.29-9.04c1.3,0,2.5-.16,3.61-.45,1.11-.32,2.11-.7,3-1.2.91-.5,1.68-1.05,2.32-1.66.66-.66,1.16-1.3,1.52-1.95v-8.64h-6.59c-2,0-3.73.2-5.16.61-1.43.36-2.57.91-3.48,1.61-.91.68-1.57,1.52-2,2.5-.43.95-.66,2-.66,3.16,0,1.73.59,3.16,1.82,4.32,1.3,1.14,3.16,1.7,5.61,1.7Z"/>
  <path class="cls-2" d="m565.68,113.27l.66,3.61.66-3.48,11.02-35.4h13.45l-19.04,50.15h-12.09l-19.13-50.15h13.45l11.02,35.27Z"/>
  <path class="cls-2" d="m625.71,129.09c-3.86,0-7.36-.64-10.52-1.91-3.16-1.27-5.86-2.98-8.11-5.14-2.25-2.2-4-4.75-5.25-7.7-1.2-2.98-1.82-6.14-1.82-9.5v-1.86c0-3.84.61-7.32,1.82-10.48,1.2-3.18,2.89-5.91,5.04-8.2s4.73-4.07,7.7-5.34c2.98-1.27,6.2-1.91,9.68-1.91s6.82.61,9.63,1.82c2.84,1.18,5.25,2.84,7.18,5,1.98,2.16,3.48,4.77,4.5,7.84,1.02,3.02,1.52,6.39,1.52,10.07v5.48h-34.02c.25,1.7.75,3.25,1.48,4.68.77,1.39,1.75,2.59,2.91,3.61,1.18,1.02,2.52,1.82,4.04,2.36s3.16.84,4.95.84c1.27,0,2.52-.11,3.75-.36,1.27-.25,2.48-.61,3.61-1.07,1.14-.5,2.2-1.09,3.2-1.82,1-.7,1.86-1.55,2.59-2.5l6.43,6.95c-.8,1.14-1.86,2.27-3.16,3.39-1.27,1.09-2.77,2.05-4.54,2.93-1.73.84-3.66,1.52-5.79,2.05-2.07.5-4.36.77-6.84.77Zm-1.52-41.58c-1.45,0-2.77.27-3.98.8-1.2.5-2.27,1.23-3.2,2.18-.89.95-1.66,2.09-2.27,3.43-.61,1.32-1.09,2.82-1.39,4.45h21.13v-1.02c-.07-1.36-.32-2.64-.8-3.84-.45-1.2-1.14-2.25-2-3.11-.86-.89-1.93-1.59-3.2-2.09-1.23-.52-2.68-.8-4.29-.8Z"/>
  <circle class="cls-1" cx="113.66" cy="106.46" r="66.56"/>
  <path class="cls-2" d="m126.09,130.5c-.32-.64-.59-1.39-.82-2.23-.23-.84-.41-1.73-.59-2.66-.75.82-1.59,1.57-2.57,2.27s-2.05,1.34-3.25,1.89c-1.16.52-2.45.93-3.89,1.2-1.43.32-2.95.48-4.61.48-2.68,0-5.16-.39-7.41-1.16-2.23-.77-4.16-1.86-5.77-3.25-1.61-1.39-2.89-3.04-3.77-4.95-.91-1.93-1.36-4.04-1.36-6.29,0-5.52,2.05-9.79,6.16-12.79,4.14-3.04,10.29-4.57,18.47-4.57h7.52v-3.11c0-2.52-.82-4.5-2.48-5.95-1.66-1.48-4.02-2.23-7.14-2.23-2.75,0-4.75.59-6.02,1.8-1.25,1.16-1.89,2.73-1.89,4.7h-13.48c0-2.23.48-4.34,1.45-6.36,1-2,2.43-3.77,4.32-5.29,1.91-1.52,4.23-2.7,6.93-3.59,2.75-.91,5.89-1.36,9.41-1.36,3.16,0,6.11.39,8.82,1.16,2.75.77,5.11,1.93,7.14,3.43,2,1.52,3.57,3.45,4.7,5.77,1.14,2.3,1.7,4.95,1.7,8v22.5c0,2.82.18,5.14.52,6.98.36,1.84.86,3.43,1.55,4.75v.82h-13.66v.07Zm-12.84-9.45c1.36,0,2.61-.16,3.77-.48s2.2-.75,3.16-1.25c.93-.52,1.75-1.09,2.43-1.75.68-.68,1.2-1.36,1.59-2.05v-9.02h-6.89c-2.09,0-3.89.2-5.39.64-1.48.39-2.7.95-3.64,1.7-.93.7-1.64,1.59-2.09,2.61-.45,1-.68,2.09-.68,3.29,0,1.82.64,3.32,1.89,4.5,1.32,1.2,3.25,1.8,5.84,1.8Z"/>
</svg>