<?xml version="1.0" encoding="UTF-8"?>
<svg id="Layer_1" data-name="Layer 1" xmlns="http://www.w3.org/2000/svg" viewBox="0 0 144.12 144.12">
  <defs>
    <style>
      .cls-1 {
        fill: none;
        stroke: #939393;
        stroke-miterlimit: 10;
        stroke-width: 11px;
      }

      .cls-2 {
        fill: #939393;
        stroke-width: 0px;
      }
    </style>
  </defs>
  <circle class="cls-1" cx="72.06" cy="72.06" r="66.56"/>
  <path class="cls-2" d="m84.49,96.1c-.32-.64-.59-1.39-.82-2.23s-.41-1.73-.59-2.66c-.75.82-1.59,1.57-2.57,2.27-.98.7-2.05,1.34-3.25,1.89-1.16.52-2.45.93-3.89,1.2-1.43.32-2.95.48-4.61.48-2.68,0-5.16-.39-7.41-1.16-2.23-.77-4.16-1.86-5.77-3.25-1.61-1.39-2.89-3.04-3.77-4.95-.91-1.93-1.36-4.04-1.36-6.29,0-5.52,2.05-9.79,6.16-12.79,4.14-3.04,10.29-4.57,18.47-4.57h7.52v-3.11c0-2.52-.82-4.5-2.48-5.95-1.66-1.48-4.02-2.23-7.14-2.23-2.75,0-4.75.59-6.02,1.8-1.25,1.16-1.89,2.73-1.89,4.7h-13.48c0-2.23.48-4.34,1.45-6.36,1-2,2.43-3.77,4.32-5.29,1.91-1.52,4.23-2.7,6.93-3.59,2.75-.91,5.89-1.36,9.41-1.36,3.16,0,6.11.39,8.82,1.16,2.75.77,5.11,1.93,7.14,3.43,2,1.52,3.57,3.45,4.7,5.77,1.14,2.3,1.7,4.95,1.7,8v22.5c0,2.82.18,5.14.52,6.98.36,1.84.86,3.43,1.55,4.75v.82h-13.66v.07l.02-.03Zm-12.84-9.45c1.36,0,2.61-.16,3.77-.48s2.2-.75,3.16-1.25c.93-.52,1.75-1.09,2.43-1.75.68-.68,1.2-1.36,1.59-2.05v-9.02h-6.89c-2.09,0-3.89.2-5.39.64-1.48.39-2.7.95-3.64,1.7-.93.7-1.64,1.59-2.09,2.61-.45,1-.68,2.09-.68,3.29,0,1.82.64,3.32,1.89,4.5,1.32,1.2,3.25,1.8,5.84,1.8h0Z"/>
</svg>