<?xml version="1.0" encoding="UTF-8"?>
<svg id="Layer_1" data-name="Layer 1" xmlns="http://www.w3.org/2000/svg" viewBox="0 0 564.22 288.12">
  <defs>
    <style>
      .cls-1 {
        fill: none;
        stroke: #939393;
        stroke-miterlimit: 10;
        stroke-width: 11px;
      }

      .cls-2 {
        fill: #939393;
        stroke-width: 0px;
      }
    </style>
  </defs>
  <g>
    <path class="cls-2" d="m47.2,286.78c-.46-.88-.83-1.91-1.16-3.1-.33-1.16-.59-2.41-.8-3.7-1.02,1.12-2.2,2.18-3.55,3.16-1.35.99-2.83,1.84-4.51,2.64-1.61.73-3.39,1.29-5.37,1.68-1.97.46-4.09.65-6.4.65-3.73,0-7.15-.52-10.28-1.61-3.1-1.09-5.77-2.57-8.01-4.51-2.25-1.91-3.99-4.22-5.24-6.86-1.25-2.7-1.89-5.6-1.89-8.73,0-7.67,2.83-13.58,8.54-17.74,5.73-4.22,14.27-6.32,25.62-6.32h10.41v-4.32c0-3.5-1.16-6.27-3.42-8.27-2.28-2.07-5.57-3.1-9.89-3.1-3.83,0-6.59.83-8.34,2.47-1.74,1.61-2.64,3.79-2.64,6.53H1.6c0-3.1.65-6.03,2.02-8.8,1.38-2.77,3.39-5.21,6.01-7.31,2.64-2.1,5.83-3.76,9.63-4.98,3.83-1.25,8.14-1.89,13.05-1.89,4.38,0,8.47.52,12.23,1.61,3.83,1.09,7.12,2.67,9.89,4.77s4.95,4.77,6.53,8.01c1.58,3.19,2.34,6.89,2.34,11.11v31.19c0,3.89.23,7.12.73,9.69s1.22,4.74,2.15,6.59v1.16h-18.91v-.03l-.04.03Zm-17.83-13.11c1.89,0,3.63-.23,5.24-.65,1.61-.46,3.06-1.02,4.38-1.74,1.29-.73,2.41-1.52,3.37-2.41.96-.96,1.68-1.89,2.2-2.83v-12.53h-9.56c-2.9,0-5.41.29-7.46.88-2.07.52-3.76,1.32-5.05,2.34-1.29.99-2.28,2.2-2.9,3.63-.62,1.38-.96,2.9-.96,4.58,0,2.51.88,4.58,2.64,6.27,1.81,1.65,4.51,2.47,8.08,2.47h.01Z"/>
    <path class="cls-2" d="m136.68,212.69c2.83,0,5.44.2,7.82.59,2.41.36,4.38.75,5.83,1.22l-2.77,18.62c-2.47-.59-5-1.02-7.59-1.29-2.57-.33-5-.46-7.31-.46-5.24,0-9.46,1.02-12.62,3.03-3.13,2.02-5.5,4.92-7.05,8.67v43.7h-18.68v-72.74h17.41l.88,11.89c2.97-4.12,6.5-7.35,10.62-9.69,4.09-2.38,8.6-3.55,13.47-3.55h-.01Z"/>
    <path class="cls-2" d="m213.68,263.96l6.32-49.97h17.14l-13.05,72.74h-16.42l-9.56-46.24-9.2,46.24h-16.42l-13.05-72.74h17.07l6.32,50.17,9.12-50.17h12.49l9.2,49.97h.03Z"/>
    <path class="cls-2" d="m285.14,288.12c-5.6,0-10.68-.93-15.26-2.77-4.58-1.84-8.5-4.32-11.76-7.46-3.26-3.19-5.8-6.89-7.59-11.17-1.74-4.32-2.64-8.91-2.64-13.78v-2.7c0-5.57.88-10.62,2.64-15.2,1.74-4.61,4.19-8.57,7.31-11.89s6.86-5.9,11.17-7.75c4.32-1.84,8.99-2.77,14.04-2.77s9.92.88,13.97,2.64c4.12,1.71,7.59,4.12,10.41,7.25,2.87,3.13,5.05,6.92,6.53,11.37,1.48,4.38,2.2,9.27,2.2,14.61v7.95h-49.35c.36,2.47,1.09,4.71,2.15,6.79,1.12,2.02,2.54,3.76,4.22,5.24,1.71,1.48,3.66,2.64,5.83,3.42,2.2.8,4.58,1.22,7.18,1.22,1.84,0,3.66-.16,5.44-.52,1.84-.36,3.6-.88,5.24-1.55,1.65-.73,3.19-1.58,4.64-2.64,1.45-1.02,2.7-2.25,3.76-3.63l9.36,10.08c-1.16,1.65-2.7,3.29-4.58,4.92-1.84,1.58-4.02,2.97-6.59,4.25-2.51,1.22-5.31,2.2-8.4,2.97-3.03.73-6.37,1.12-9.95,1.12h.03Zm-2.2-60.31c-2.1,0-4.02.39-5.77,1.16-1.74.73-3.29,1.78-4.64,3.16-1.29,1.38-2.41,3.03-3.29,4.98-.88,1.91-1.58,4.09-2.02,6.45h30.65v-1.48c-.1-1.97-.46-3.83-1.16-5.57-.65-1.74-1.65-3.26-2.9-4.51-1.25-1.29-2.8-2.31-4.64-3.03-1.78-.75-3.86-1.16-6.22-1.16h0Z"/>
    <path class="cls-2" d="m377.98,286.78c-.46-.88-.83-1.91-1.16-3.1-.29-1.16-.59-2.41-.8-3.7-1.02,1.12-2.2,2.18-3.55,3.16s-2.83,1.84-4.51,2.64c-1.61.73-3.39,1.29-5.37,1.68-1.97.46-4.09.65-6.4.65-3.73,0-7.15-.52-10.28-1.61-3.1-1.09-5.77-2.57-8.01-4.51-2.25-1.91-3.99-4.22-5.24-6.86-1.25-2.7-1.89-5.6-1.89-8.73,0-7.67,2.83-13.58,8.54-17.74,5.73-4.22,14.27-6.32,25.62-6.32h10.41v-4.32c0-3.5-1.16-6.27-3.42-8.27-2.28-2.07-5.57-3.1-9.89-3.1-3.83,0-6.59.83-8.34,2.47-1.74,1.61-2.64,3.79-2.64,6.53h-18.65c0-3.1.65-6.03,2.02-8.8,1.38-2.77,3.39-5.21,6.01-7.31,2.64-2.1,5.83-3.76,9.63-4.98,3.83-1.25,8.18-1.89,13.05-1.89,4.38,0,8.47.52,12.23,1.61,3.79,1.09,7.09,2.67,9.89,4.77s4.95,4.77,6.53,8.01c1.58,3.19,2.34,6.89,2.34,11.11v31.19c0,3.89.26,7.12.75,9.69s1.22,4.74,2.15,6.59v1.16h-18.99v-.03l-.03.03Zm-17.83-13.11c1.89,0,3.63-.23,5.24-.65,1.61-.46,3.06-1.02,4.35-1.74,1.32-.73,2.44-1.52,3.37-2.41.96-.96,1.68-1.89,2.2-2.83v-12.53h-9.56c-2.9,0-5.41.29-7.48.88-2.07.52-3.73,1.32-5.05,2.34-1.32.99-2.28,2.2-2.9,3.63-.62,1.38-.96,2.9-.96,4.58,0,2.51.86,4.58,2.64,6.27,1.89,1.65,4.58,2.47,8.14,2.47h.01Z"/>
    <path class="cls-2" d="m446.15,265.18l.96,5.24.96-5.05,15.98-51.35h19.51l-27.62,72.74h-17.54l-27.75-72.74h19.51s15.98,51.16,15.98,51.16Z"/>
    <path class="cls-2" d="m533.23,288.12c-5.6,0-10.68-.93-15.26-2.77-4.58-1.84-8.5-4.32-11.76-7.46-3.26-3.19-5.8-6.89-7.62-11.17-1.74-4.32-2.64-8.91-2.64-13.78v-2.7c0-5.57.88-10.62,2.64-15.2,1.74-4.61,4.19-8.57,7.31-11.89s6.86-5.9,11.17-7.75c4.32-1.84,8.99-2.77,14.04-2.77s9.89.88,13.97,2.64c4.12,1.71,7.62,4.12,10.41,7.25,2.87,3.13,5.05,6.92,6.53,11.37,1.48,4.38,2.2,9.27,2.2,14.61v7.95h-49.35c.36,2.47,1.09,4.71,2.15,6.79,1.12,2.02,2.54,3.76,4.22,5.24,1.71,1.48,3.66,2.64,5.86,3.42s4.58,1.22,7.18,1.22c1.84,0,3.66-.16,5.44-.52,1.84-.36,3.6-.88,5.24-1.55,1.65-.73,3.19-1.58,4.64-2.64,1.45-1.02,2.7-2.25,3.76-3.63l9.33,10.08c-1.16,1.65-2.7,3.29-4.58,4.92-1.84,1.58-4.02,2.97-6.59,4.25-2.51,1.22-5.31,2.2-8.4,2.97-3,.73-6.32,1.12-9.92,1.12h.03Zm-2.2-60.31c-2.1,0-4.02.39-5.77,1.16-1.74.73-3.29,1.78-4.64,3.16-1.29,1.38-2.41,3.03-3.29,4.98-.88,1.91-1.58,4.09-2.02,6.45h30.65v-1.48c-.1-1.97-.46-3.83-1.16-5.57-.65-1.74-1.65-3.26-2.9-4.51-1.25-1.29-2.8-2.31-4.64-3.03-1.78-.75-3.89-1.16-6.22-1.16Z"/>
  </g>
  <g>
    <circle class="cls-1" cx="282.11" cy="72.06" r="66.56"/>
    <path class="cls-2" d="m294.54,96.1c-.32-.64-.59-1.39-.82-2.23s-.41-1.73-.59-2.66c-.75.82-1.59,1.57-2.57,2.27-.98.7-2.05,1.34-3.25,1.89-1.16.52-2.45.93-3.89,1.2-1.43.32-2.95.48-4.61.48-2.68,0-5.16-.39-7.41-1.16-2.23-.77-4.16-1.86-5.77-3.25-1.61-1.39-2.89-3.04-3.77-4.95-.91-1.93-1.36-4.04-1.36-6.29,0-5.52,2.05-9.79,6.16-12.79,4.14-3.04,10.29-4.57,18.47-4.57h7.52v-3.11c0-2.52-.82-4.5-2.48-5.95-1.66-1.48-4.02-2.23-7.14-2.23-2.75,0-4.75.59-6.02,1.8-1.25,1.16-1.89,2.73-1.89,4.7h-13.48c0-2.23.48-4.34,1.45-6.36,1-2,2.43-3.77,4.32-5.29,1.91-1.52,4.23-2.7,6.93-3.59,2.75-.91,5.89-1.36,9.41-1.36,3.16,0,6.11.39,8.82,1.16,2.75.77,5.11,1.93,7.14,3.43,2,1.52,3.57,3.45,4.7,5.77,1.14,2.3,1.7,4.95,1.7,8v22.5c0,2.82.18,5.14.52,6.98.36,1.84.86,3.43,1.55,4.75v.82h-13.66v.07l.02-.03Zm-12.84-9.45c1.36,0,2.61-.16,3.77-.48s2.2-.75,3.16-1.25c.93-.52,1.75-1.09,2.43-1.75.68-.68,1.2-1.36,1.59-2.05v-9.02h-6.89c-2.09,0-3.89.2-5.39.64-1.48.39-2.7.95-3.64,1.7-.93.7-1.64,1.59-2.09,2.61-.45,1-.68,2.09-.68,3.29,0,1.82.64,3.32,1.89,4.5,1.32,1.2,3.25,1.8,5.84,1.8h0Z"/>
  </g>
</svg>