<?xml version="1.0" encoding="UTF-8"?>
<svg id="Layer_1" data-name="Layer 1" xmlns="http://www.w3.org/2000/svg" viewBox="0 0 700.69 240.85">
  <defs>
    <style>
      .cls-1 {
        fill: #939393;
        stroke-width: 0px;
      }
    </style>
  </defs>
  <path class="cls-1" d="m275.34,194.76l29.61-139.22h25.49l-29.61,139.22h-25.49Z"/>
  <path class="cls-1" d="m330.64,154.76c0-31.77,27.06-58.82,60-58.82s50.39,26.67,40.2,59.41h-75.3c.98,12.35,9.61,19.61,21.57,19.61s20.98-5.1,27.45-13.53l20.2,9.41c-9.8,14.51-28.24,25.88-49.02,25.88-26.28,0-45.1-16.47-45.1-41.96Zm29.02-18.82h49.02c-.78-9.8-8.63-18.24-20.39-18.24s-22.75,6.86-28.63,18.24Z"/>
  <path class="cls-1" d="m447.9,154.76c0-31.77,27.06-58.82,60-58.82s50.39,26.67,40.2,59.41h-75.3c.98,12.35,9.61,19.61,21.57,19.61s20.98-5.1,27.45-13.53l20.2,9.41c-9.8,14.51-28.24,25.88-49.02,25.88-26.28,0-45.1-16.47-45.1-41.96Zm29.02-18.82h49.02c-.78-9.8-8.63-18.24-20.39-18.24s-22.94,6.86-28.63,18.24Z"/>
  <path class="cls-1" d="m591.23,171.03l-5.1,23.73h-25.49l29.61-139.22h25.49l-16.67,78.04,39.41-35.88h35.1l-47.06,41.96,32.75,55.1h-29.41l-22.55-38.04-16.08,14.31Z"/>
  <path class="cls-1" d="m206.13,194.76l15.88-74.71h-19.61l4.9-22.35h19.61l.98-4.51c5.49-27.06,18.43-37.65,47.06-37.65h11.57l-4.9,22.35h-11.37c-10.59,0-14.51,3.33-16.67,13.73l-1.18,6.08h25.1l-4.71,22.35h-25.29l-15.88,74.71h-25.49Z"/>
  <path class="cls-1" d="m133.38,128.48c8.24-1.76,14.71-3.14,21.18-4.51,2.55-.59,5.69-2.16,7.45.98,1.76,2.94-.98,5.1-2.55,7.06-14.71,18.24-29.41,36.28-44.31,54.31-13.53,16.47-26.86,32.94-40.39,49.41-1.37,1.76-2.94,3.33-4.71,4.71-.59.39-2.16.59-2.75.2-.59-.39-.78-1.76-.59-2.55.59-1.96,1.57-3.73,2.35-5.49,10-19.41,20-38.63,30-58.04.78-1.57,3.14-3.33,1.37-5.29-1.57-1.57-3.73,0-5.49.39-4.51.98-9.22,1.96-13.73,2.75-2.16.39-4.71.98-6.08-1.18-1.57-2.35.2-4.31,1.37-6.08,9.61-14.71,19.02-29.41,28.63-44.31,1.18-1.96,4.12-3.92,2.16-6.47-1.57-1.96-4.12-.2-6.27.2-3.73.78-7.26,1.57-10.98,2.35-2.35.59-5.1,1.76-6.86-.78-2.16-2.94.39-5.29,1.96-7.26,10.2-12.75,20.59-25.29,30.98-37.84,17.65-21.57,35.29-43.33,53.14-64.9,1.96-2.55,4.12-7.65,7.45-5.69,3.92,2.35-.59,6.08-1.76,8.82-9.41,18.63-19.02,37.06-28.43,55.49-.78,1.57-2.94,3.33-1.37,5.29,1.57,1.57,3.73.2,5.69,0,3.92-.59,7.84-1.57,11.76-1.96,2.35-.2,5.1-1.96,6.86.59s-.39,4.71-1.57,6.67c-9.61,14.71-19.02,29.41-28.63,44.12-1.76,2.55-3.33,5.1-5.88,9.02Z"/>
</svg>