<?xml version="1.0" encoding="UTF-8"?>
<svg id="Layer_1" data-name="Layer 1" xmlns="http://www.w3.org/2000/svg" xmlns:xlink="http://www.w3.org/1999/xlink" viewBox="0 0 519.8 245.6">
  <defs>
    <style>
      .cls-1 {
        fill: url(#_未命名的渐变);
      }

      .cls-1, .cls-2, .cls-3, .cls-4 {
        stroke-width: 0px;
      }

      .cls-2 {
        fill: #939393;
      }

      .cls-3 {
        fill: none;
      }

      .cls-4 {
        fill: url(#_未命名的渐变_2);
      }
    </style>
    <linearGradient id="_未命名的渐变" data-name="未命名的渐变" x1="-181.03" y1="888.28" x2="-178.95" y2="886.58" gradientTransform="translate(11187.47 41994.52) scale(60.08 -47.2)" gradientUnits="userSpaceOnUse">
      <stop offset=".21" stop-color="#818181"/>
      <stop offset=".68" stop-color="#bababa"/>
    </linearGradient>
    <linearGradient id="_未命名的渐变_2" data-name="未命名的渐变 2" x1="-181.74" y1="886.16" x2="-183.83" y2="887.86" gradientTransform="translate(11129.36 42031.27) scale(60.09 -47.23)" gradientUnits="userSpaceOnUse">
      <stop offset=".21" stop-color="#999"/>
      <stop offset=".89" stop-color="#3e3e3e"/>
    </linearGradient>
  </defs>
  <path id="Path-7" class="cls-3" d="m412.76,122.73c-.37-30.19-25.15-54.32-55.34-53.95-8.04,0-22.37,4.02-44.08,23.03-10.31,9.28-20.03,19.3-28.88,29.97,11.92,12.65,24.71,25.88,30.56,30.92,11.26,9.28,23.69,17.11,36.99,23.17,1.75.44,3.58.66,5.41.73,30.48-.07,55.34-24.27,55.34-53.88h0Z"/>
  <path id="Path-8" class="cls-3" d="m314.44,153.5c17.98,15.64,30.12,20.83,37.65,22.52,1.75.44,3.58.66,5.41.73,30.63-.22,55.34-24.42,55.34-54.02-.37-30.19-25.15-54.32-55.34-53.95-8.04,0-22.37,4.02-44.08,23.03-10.31,9.28-20.03,19.37-28.88,30.05,9.21,11.26,19.23,21.79,29.9,31.65h0Z"/>
  <path id="Path-9" class="cls-1" d="m357.5,33.25c-21.2,0-44.3,10.97-68.79,32.31-10.38,9.14-20.03,19.01-28.95,29.61h0s11.92,12.94,25.08,26.76c8.77-10.75,18.42-20.83,28.73-30.12,21.71-19.01,35.97-23.03,44.08-23.03,30.19-.37,54.97,23.76,55.34,53.95,0,29.61-24.93,53.81-55.34,54.02-1.83-.07-3.66-.29-5.41-.73,8.63,4.02,18.06,6.29,27.56,6.58,56,0,66.89-36.48,67.62-39.11,1.68-6.8,2.49-13.82,2.49-20.83-.22-49.35-41.6-89.41-92.4-89.41h0Z"/>
  <path id="Path-10" class="cls-3" d="m106.96,122.73c.37,30.19,25.15,54.32,55.34,54.02,8.04,0,22.37-4.02,44.08-23.03,10.38-9.36,20.03-19.37,28.95-30.12-11.92-12.65-24.71-25.95-30.63-30.92-11.26-9.36-23.69-17.11-37.06-23.17-1.75-.44-3.58-.66-5.41-.66-30.56.29-55.27,24.49-55.27,53.88h0Z"/>
  <path id="Path-11" class="cls-3" d="m205.14,92.17c-17.98-15.64-30.12-20.83-37.65-22.52-1.75-.44-3.58-.66-5.41-.66-29.83-.66-54.54,22.88-55.27,52.71-.66,29.83,22.88,54.54,52.71,55.27h2.49c8.04,0,22.37-4.02,44.08-23.03,10.38-9.36,20.03-19.37,28.95-30.12.22-.22.37-.44.51-.66-9.36-11.11-19.52-21.42-30.41-31h0Z"/>
  <path id="Path-12" class="cls-4" d="m162.23,212.57c21.2,0,44.3-10.89,68.79-32.31,10.45-9.21,20.1-19.15,29.1-29.75h0s-11.92-12.94-25-26.76c-8.85,10.75-18.57,20.83-28.95,30.12-21.71,19.01-35.97,23.03-44.08,23.03-30.19.37-54.97-23.76-55.34-53.95,0-29.61,24.86-53.81,55.34-53.95,1.83,0,3.58.22,5.41.66-8.7-4.02-18.06-6.29-27.63-6.58-55.78,0-66.74,36.33-67.4,39.04-1.68,6.8-2.56,13.82-2.56,20.83,0,49.27,41.38,89.63,92.33,89.63h0Z"/>
  <path id="Path-13" class="cls-2" d="m379.5,181.8c-28.51-.66-58.34-23.17-64.41-28.95-15.64-14.47-51.9-53.81-54.61-56.95-26.61-29.61-62.58-62.87-98.11-62.87h0c-43.57.37-80.2,29.61-89.77,68.94.66-2.56,14.99-39.7,67.62-38.53,28.51.66,58.56,23.54,64.55,29.24,15.64,14.47,51.98,53.81,54.68,56.95,26.54,29.61,62.36,62.87,98.11,62.87h0c42.04.15,78.88-28.15,89.63-68.79-.66,2.41-15.21,39.4-67.7,38.09h0Z"/>
</svg>