<?xml version="1.0" encoding="UTF-8"?>
<svg id="Layer_1" data-name="Layer 1" xmlns="http://www.w3.org/2000/svg" xmlns:xlink="http://www.w3.org/1999/xlink" viewBox="0 0 519.8 245.6">
  <defs>
    <style>
      .cls-1 {
        fill: url(#_未命名的渐变);
      }

      .cls-1, .cls-2, .cls-3, .cls-4 {
        stroke-width: 0px;
      }

      .cls-2 {
        fill: #939393;
      }

      .cls-3 {
        fill: none;
      }

      .cls-4 {
        fill: url(#_未命名的渐变_2);
      }
    </style>
    <linearGradient id="_未命名的渐变" data-name="未命名的渐变" x1="-44.03" y1="-370.56" x2="-41.18" y2="-368.23" gradientTransform="translate(2975.35 17537.72) scale(60.08 47.2)" gradientUnits="userSpaceOnUse">
      <stop offset=".21" stop-color="#818181"/>
      <stop offset=".68" stop-color="#bababa"/>
    </linearGradient>
    <linearGradient id="_未命名的渐变_2" data-name="未命名的渐变 2" x1="-45.36" y1="-367.57" x2="-48.22" y2="-369.9" gradientTransform="translate(2915.85 17558.75) scale(60.09 47.23)" gradientUnits="userSpaceOnUse">
      <stop offset=".21" stop-color="#999"/>
      <stop offset=".89" stop-color="#3e3e3e"/>
    </linearGradient>
  </defs>
  <path id="Path-7" class="cls-3" d="m469,122.7c-.5-41.3-34.4-74.3-75.7-73.8-11,0-30.6,5.5-60.3,31.5-14.1,12.7-27.4,26.4-39.5,41,16.3,17.3,33.8,35.4,41.8,42.3,15.4,12.7,32.4,23.4,50.6,31.7,2.4.6,4.9.9,7.4,1,41.7-.1,75.7-33.2,75.7-73.7h0Z"/>
  <path id="Path-8" class="cls-3" d="m334.5,164.8c24.6,21.4,41.2,28.5,51.5,30.8,2.4.6,4.9.9,7.4,1,41.9-.3,75.7-33.4,75.7-73.9-.5-41.3-34.4-74.3-75.7-73.8-11,0-30.6,5.5-60.3,31.5-14.1,12.7-27.4,26.5-39.5,41.1,12.6,15.4,26.3,29.8,40.9,43.3h0Z"/>
  <path id="Path-9" class="cls-1" d="m393.4.3c-29,0-60.6,15-94.1,44.2-14.2,12.5-27.4,26-39.6,40.5h0s16.3,17.7,34.3,36.6c12-14.7,25.2-28.5,39.3-41.2,29.7-26,49.2-31.5,60.3-31.5,41.3-.5,75.2,32.5,75.7,73.8,0,40.5-34.1,73.6-75.7,73.9-2.5-.1-5-.4-7.4-1,11.8,5.5,24.7,8.6,37.7,9,76.6,0,91.5-49.9,92.5-53.5,2.3-9.3,3.4-18.9,3.4-28.5C519.5,55.1,462.9.3,393.4.3h0Z"/>
  <path id="Path-10" class="cls-3" d="m50.7,122.7c.5,41.3,34.4,74.3,75.7,73.9,11,0,30.6-5.5,60.3-31.5,14.2-12.8,27.4-26.5,39.6-41.2-16.3-17.3-33.8-35.5-41.9-42.3-15.4-12.8-32.4-23.4-50.7-31.7-2.4-.6-4.9-.9-7.4-.9-41.8.4-75.6,33.5-75.6,73.7h0Z"/>
  <path id="Path-11" class="cls-3" d="m185,80.9c-24.6-21.4-41.2-28.5-51.5-30.8-2.4-.6-4.9-.9-7.4-.9-40.8-.9-74.6,31.3-75.6,72.1-.9,40.8,31.3,74.6,72.1,75.6h3.4c11,0,30.6-5.5,60.3-31.5,14.2-12.8,27.4-26.5,39.6-41.2.3-.3.5-.6.7-.9-12.8-15.2-26.7-29.3-41.6-42.4h0Z"/>
  <path id="Path-12" class="cls-4" d="m126.3,245.6c29,0,60.6-14.9,94.1-44.2,14.3-12.6,27.5-26.2,39.8-40.7h0s-16.3-17.7-34.2-36.6c-12.1,14.7-25.4,28.5-39.6,41.2-29.7,26-49.2,31.5-60.3,31.5-41.3.5-75.2-32.5-75.7-73.8,0-40.5,34-73.6,75.7-73.8,2.5,0,4.9.3,7.4.9-11.9-5.5-24.7-8.6-37.8-9C19.4,41.1,4.4,90.8,3.5,94.5c-2.3,9.3-3.5,18.9-3.5,28.5,0,67.4,56.6,122.6,126.3,122.6h0Z"/>
  <path id="Path-13" class="cls-2" d="m423.5,203.5c-39-.9-79.8-31.7-88.1-39.6-21.4-19.8-71-73.6-74.7-77.9C224.3,45.5,175.1,0,126.5,0h0C66.9.5,16.8,40.5,3.7,94.3c.9-3.5,20.5-54.3,92.5-52.7,39,.9,80.1,32.2,88.3,40,21.4,19.8,71.1,73.6,74.8,77.9,36.3,40.5,85.3,86,134.2,86h0c57.5.2,107.9-38.5,122.6-94.1-.9,3.3-20.8,53.9-92.6,52.1h0Z"/>
</svg>