<?xml version="1.0" encoding="UTF-8"?>
<svg id="Layer_1" data-name="Layer 1" xmlns="http://www.w3.org/2000/svg" xmlns:xlink="http://www.w3.org/1999/xlink" viewBox="0 0 736.01 391.4">
  <defs>
    <style>
      .cls-1 {
        fill: url(#_未命名的渐变);
      }

      .cls-1, .cls-2, .cls-3, .cls-4 {
        stroke-width: 0px;
      }

      .cls-2 {
        fill: #939393;
      }

      .cls-3 {
        fill: none;
      }

      .cls-4 {
        fill: url(#_未命名的渐变_2);
      }
    </style>
    <linearGradient id="_未命名的渐变" data-name="未命名的渐变" x1="81.48" y1="-299.1" x2="84.33" y2="-296.77" gradientTransform="translate(-4457.29 14165.12) scale(60.08 47.2)" gradientUnits="userSpaceOnUse">
      <stop offset=".21" stop-color="#818181"/>
      <stop offset=".68" stop-color="#bababa"/>
    </linearGradient>
    <linearGradient id="_未命名的渐变_2" data-name="未命名的渐变 2" x1="80.15" y1="-296.11" x2="77.29" y2="-298.44" gradientTransform="translate(-4518.05 14183.96) scale(60.09 47.23)" gradientUnits="userSpaceOnUse">
      <stop offset=".21" stop-color="#999"/>
      <stop offset=".89" stop-color="#3e3e3e"/>
    </linearGradient>
  </defs>
  <path id="Path-7" class="cls-3" d="m576.81,122.7c-.5-41.3-34.4-74.3-75.7-73.8-11,0-30.6,5.5-60.3,31.5-14.1,12.7-27.4,26.4-39.5,41,16.3,17.3,33.8,35.4,41.8,42.3,15.4,12.7,32.4,23.4,50.6,31.7,2.4.6,4.9.9,7.4,1,41.7-.1,75.7-33.2,75.7-73.7h0Z"/>
  <path id="Path-8" class="cls-3" d="m442.31,164.8c24.6,21.4,41.2,28.5,51.5,30.8,2.4.6,4.9.9,7.4,1,41.9-.3,75.7-33.4,75.7-73.9-.5-41.3-34.4-74.3-75.7-73.8-11,0-30.6,5.5-60.3,31.5-14.1,12.7-27.4,26.5-39.5,41.1,12.6,15.4,26.3,29.8,40.9,43.3h0Z"/>
  <path id="Path-9" class="cls-1" d="m501.21.3c-29,0-60.6,15-94.1,44.2-14.2,12.5-27.4,26-39.6,40.5h0s16.3,17.7,34.3,36.6c12-14.7,25.2-28.5,39.3-41.2,29.7-26,49.2-31.5,60.3-31.5,41.3-.5,75.2,32.5,75.7,73.8,0,40.5-34.1,73.6-75.7,73.9-2.5-.1-5-.4-7.4-1,11.8,5.5,24.7,8.6,37.7,9,76.6,0,91.5-49.9,92.5-53.5,2.3-9.3,3.4-18.9,3.4-28.5-.3-67.5-56.9-122.3-126.4-122.3h0Z"/>
  <path id="Path-10" class="cls-3" d="m158.51,122.7c.5,41.3,34.4,74.3,75.7,73.9,11,0,30.6-5.5,60.3-31.5,14.2-12.8,27.4-26.5,39.6-41.2-16.3-17.3-33.8-35.5-41.9-42.3-15.4-12.8-32.4-23.4-50.7-31.7-2.4-.6-4.9-.9-7.4-.9-41.8.4-75.6,33.5-75.6,73.7h0Z"/>
  <path id="Path-11" class="cls-3" d="m292.81,80.9c-24.6-21.4-41.2-28.5-51.5-30.8-2.4-.6-4.9-.9-7.4-.9-40.8-.9-74.6,31.3-75.6,72.1-.9,40.8,31.3,74.6,72.1,75.6h3.4c11,0,30.6-5.5,60.3-31.5,14.2-12.8,27.4-26.5,39.6-41.2.3-.3.5-.6.7-.9-12.8-15.2-26.7-29.3-41.6-42.4h0Z"/>
  <path id="Path-12" class="cls-4" d="m234.11,245.6c29,0,60.6-14.9,94.1-44.2,14.3-12.6,27.5-26.2,39.8-40.7h0s-16.3-17.7-34.2-36.6c-12.1,14.7-25.4,28.5-39.6,41.2-29.7,26-49.2,31.5-60.3,31.5-41.3.5-75.2-32.5-75.7-73.8,0-40.5,34-73.6,75.7-73.8,2.5,0,4.9.3,7.4.9-11.9-5.5-24.7-8.6-37.8-9-76.3,0-91.3,49.7-92.2,53.4-2.3,9.3-3.5,18.9-3.5,28.5,0,67.4,56.6,122.6,126.3,122.6h0Z"/>
  <path id="Path-13" class="cls-2" d="m531.31,203.5c-39-.9-79.8-31.7-88.1-39.6-21.4-19.8-71-73.6-74.7-77.9C332.11,45.5,282.91,0,234.31,0h0c-59.6.5-109.7,40.5-122.8,94.3.9-3.5,20.5-54.3,92.5-52.7,39,.9,80.1,32.2,88.3,40,21.4,19.8,71.1,73.6,74.8,77.9,36.3,40.5,85.3,86,134.2,86h0c57.5.2,107.9-38.5,122.6-94.1-.9,3.3-20.8,53.9-92.6,52.1h0Z"/>
  <path id="Shape" class="cls-2" d="m24.23,318.99H5.33c-2.7-.2-5.1,1.8-5.3,4.5v62.4c-.3,2.7,1.7,5.1,4.4,5.4h19.8c21.7,0,37-14.7,37-36.1s-15.1-36.2-37-36.2h0Zm23,36.1c.8,12.5-8.7,23.3-21.2,24.1-.7,0-1.3.1-2,0h-10.2v-48.3h10.2c12.5-.4,22.9,9.4,23.2,21.9.1.8.1,1.5,0,2.3h0Z"/>
  <path id="Path" class="cls-2" d="m166.13,318.99h-37c-2.8-.2-5.1,1.9-5.3,4.7v62.3c-.2,2.7,1.8,5.1,4.5,5.3h4.2c2.7.2,5.1-1.8,5.3-4.5v-25h24.2c1.4.1,2.8-.4,3.8-1.4s1.5-2.4,1.4-3.8v-1.1c.2-2.7-1.8-5.1-4.5-5.3h-25.1v-18.8h28.5c2.8.2,5.1-1.9,5.3-4.7v-1.9c-.2-3.8-2.1-5.8-5.3-5.8h0Z"/>
  <path id="Path-2" class="cls-2" d="m253.23,318.99h-3.4c-2.7-.2-5.1,1.8-5.3,4.6v62.4c-.3,2.7,1.6,5.1,4.3,5.4h4.4c2.7.2,5.1-1.8,5.3-4.5v-62.6c.2-2.8-1.9-5.1-4.7-5.3-.1-.1-.3-.1-.6,0h0Z"/>
  <path id="Path-3" class="cls-2" d="m385.33,318.99h-3.5c-2.7-.2-5.1,1.8-5.3,4.6v41.8l-32.2-43.3c-1.3-1.8-3.5-2.9-5.7-2.8h-1.4c-2.8-.2-5.1,1.9-5.3,4.6v62.2c-.2,2.8,1.9,5.1,4.7,5.3h4.1c2.8.2,5.1-1.9,5.3-4.7v-42.1l32.2,43.7c1.3,1.8,3.5,2.8,5.8,2.7h1.4c2.7.2,5.1-1.8,5.3-4.6v-62.3c.2-2.7-1.9-5.1-4.6-5.3-.3.1-.5.1-.8.2h0Z"/>
  <path id="Path-4" class="cls-2" d="m472.53,318.99h-3.2c-2.7-.2-5.1,1.8-5.3,4.6v62.4c-.2,2.7,1.8,5.1,4.6,5.3h4.2c2.7.2,5.1-1.8,5.3-4.6v-62.4c0-2.9-2.3-5.3-5.2-5.3h-.4Z"/>
  <path id="Path-5" class="cls-2" d="m605.23,318.99h-48.8c-2.7-.2-5.1,1.8-5.3,4.6v2.1c-.2,2.7,1.8,5.1,4.5,5.3h18.1v55c-.2,2.7,1.8,5.1,4.5,5.3h4c2.7.2,5.1-1.8,5.3-4.5v-55.8h17.3c2.7.2,5.1-1.8,5.3-4.6v-2.1c.2-2.7-1.9-5.1-4.6-5.3h-.3Z"/>
  <path id="Path-6" class="cls-2" d="m735.63,321.19c-.9-1.5-2.6-2.3-4.3-2.1h-4.3c-2.4-.1-4.6,1.2-5.8,3.2l-17,27.2-16.8-26.9c-1.1-2.1-3.4-3.4-5.8-3.2h-4.3c-1.7-.1-3.3.7-4.3,2.1-.8,1.6-.5,3.5.7,4.8l23.7,35.7v24.1c-.2,2.7,1.8,5.1,4.5,5.3h4c2.7.2,5.1-1.8,5.3-4.5v-24.9l23.5-35.7c1.8-2.7,1.3-4.3.9-5.1h0Z"/>
</svg>