<?xml version="1.0" encoding="UTF-8"?>
<svg id="katman_1" data-name="katman 1" xmlns="http://www.w3.org/2000/svg" viewBox="0 0 136.69 128.1">
  <defs>
    <style>
      .cls-1, .cls-2 {
        fill: #939393;
        stroke-width: 0px;
      }

      .cls-2 {
        fill-rule: evenodd;
      }
    </style>
  </defs>
  <path class="cls-2" d="m96.59,14c-5.4-6.9-13.2-11.2-21.9-11.2-16.8,0-29.2,15.7-29.2,32.6,0,11.8,7.9,20.6,16.5,20.6.8,0,1.6-.1,2.4-.2-5.9-4.3-9.6-12-9.6-20.4,0-13.4,9.1-23.8,19.8-23.8,11.7,0,19.8,11.6,19.8,23.8-.1,9.1-3.3,18.1-9,24.7-5,5.8-11.4,9.5-18.5,10.6,0,0,.6.1,1.4.1,19.5,0,35.4-15.9,35.4-35.4.1-8.1-2.6-15.5-7.1-21.4h0Zm-5.4,21.4c0-11.8-7.9-20.6-16.5-20.6-.8,0-1.6.1-2.4.2,5.9,4.3,9.6,12,9.6,20.4,0,13.4-9.1,23.8-19.8,23.8-11.7,0-19.8-11.6-19.8-23.8.1-9.1,3.3-18.1,9-24.7C56.29,4.9,62.69,1.2,69.79.1c0,0-.6-.1-1.4-.1-19.5,0-35.4,15.9-35.4,35.4,0,8,2.7,15.4,7.2,21.4,5.4,6.9,13.2,11.2,21.9,11.2,16.8-.1,29.1-15.7,29.1-32.6Z"/>
  <path class="cls-1" d="m0,112.18c0,8.89,6.55,15.92,15.92,15.92s15.92-7.02,15.92-15.92-6.55-15.92-15.92-15.92S0,103.29,0,112.18Zm6.09,0c0-5.62,3.98-9.83,9.83-9.83s9.83,4.21,9.83,9.83-3.98,9.83-9.83,9.83-9.83-4.21-9.83-9.83Zm50.56,15.21h6.09l-10.06-30.66h-6.09l-10.06,30.66h6.09l1.4-4.45h11.47l1.17,4.45Zm-11-10.06l3.74-11.7,3.74,11.7h-7.49Zm39.09-11.7h6.09c0-5.62-4.68-9.36-11-9.36s-11,3.98-11,9.6c0,3.98,2.11,7.02,6.32,8.19,2.81.7,6.09.47,7.96,1.17,1.17.47,2.11,1.4,2.11,2.81,0,2.34-1.87,3.98-5.15,3.98-3.04,0-5.62-1.64-5.62-3.98h-6.09c0,5.85,4.92,9.83,11.47,9.83s11.23-4.21,11.23-10.06c0-4.21-2.34-7.02-6.32-8.19-3.04-.94-5.85-.47-7.96-1.17-1.4-.47-2.11-1.4-2.11-2.81,0-2.11,1.87-3.74,4.92-3.74s5.15,1.64,5.15,3.74Zm14.98,21.77h6.09v-30.66h-6.09v30.66Zm30.66-21.77h6.09c0-5.62-4.68-9.36-11-9.36s-11,3.98-11,9.6c0,3.98,2.11,7.02,6.32,8.19,2.81.7,6.09.47,7.96,1.17,1.17.47,2.11,1.4,2.11,2.81,0,2.34-1.87,3.98-5.15,3.98-3.04,0-5.62-1.64-5.62-3.98h-6.09c0,5.85,4.92,9.83,11.47,9.83s11.23-4.21,11.23-10.06c0-4.21-2.34-7.02-6.32-8.19-3.04-.94-5.85-.47-7.96-1.17-1.4-.47-2.11-1.4-2.11-2.81,0-2.11,1.87-3.74,4.92-3.74s4.92,1.64,5.15,3.74Z"/>
</svg>