<?xml version="1.0" encoding="UTF-8"?>
<svg id="katman_1" data-name="katman 1" xmlns="http://www.w3.org/2000/svg" viewBox="0 0 312.85 128.1">
  <defs>
    <style>
      .cls-1, .cls-2 {
        fill: #939393;
      }

      .cls-1, .cls-2, .cls-3 {
        stroke-width: 0px;
      }

      .cls-2 {
        fill-rule: evenodd;
      }

      .cls-3 {
        fill: #585c60;
      }
    </style>
  </defs>
  <path class="cls-2" d="m184.67,14c-5.4-6.9-13.2-11.2-21.9-11.2-16.8,0-29.2,15.7-29.2,32.6,0,11.8,7.9,20.6,16.5,20.6.8,0,1.6-.1,2.4-.2-5.9-4.3-9.6-12-9.6-20.4,0-13.4,9.1-23.8,19.8-23.8,11.7,0,19.8,11.6,19.8,23.8-.1,9.1-3.3,18.1-9,24.7-5,5.8-11.4,9.5-18.5,10.6,0,0,.6.1,1.4.1,19.5,0,35.4-15.9,35.4-35.4.1-8.1-2.6-15.5-7.1-21.4h0Zm-5.4,21.4c0-11.8-7.9-20.6-16.5-20.6-.8,0-1.6.1-2.4.2,5.9,4.3,9.6,12,9.6,20.4,0,13.4-9.1,23.8-19.8,23.8-11.7,0-19.8-11.6-19.8-23.8.1-9.1,3.3-18.1,9-24.7,5-5.8,11.4-9.5,18.5-10.6,0,0-.6-.1-1.4-.1-19.5,0-35.4,15.9-35.4,35.4,0,8,2.7,15.4,7.2,21.4,5.4,6.9,13.2,11.2,21.9,11.2,16.8-.1,29.1-15.7,29.1-32.6Z"/>
  <path class="cls-1" d="m0,112.18c0,8.89,6.55,15.92,15.92,15.92s15.92-7.02,15.92-15.92-6.55-15.92-15.92-15.92S0,103.29,0,112.18Zm6.09,0c0-5.62,3.98-9.83,9.83-9.83s9.83,4.21,9.83,9.83-3.98,9.83-9.83,9.83-9.83-4.21-9.83-9.83Zm50.56,15.21h6.09l-10.06-30.66h-6.09l-10.06,30.66h6.09l1.4-4.45h11.47l1.17,4.45Zm-11-10.06l3.74-11.7,3.74,11.7h-7.49Zm39.09-11.7h6.09c0-5.62-4.68-9.36-11-9.36s-11,3.98-11,9.6c0,3.98,2.11,7.02,6.32,8.19,2.81.7,6.09.47,7.96,1.17,1.17.47,2.11,1.4,2.11,2.81,0,2.34-1.87,3.98-5.15,3.98-3.04,0-5.62-1.64-5.62-3.98h-6.09c0,5.85,4.92,9.83,11.47,9.83s11.23-4.21,11.23-10.06c0-4.21-2.34-7.02-6.32-8.19-3.04-.94-5.85-.47-7.96-1.17-1.4-.47-2.11-1.4-2.11-2.81,0-2.11,1.87-3.74,4.92-3.74s5.15,1.64,5.15,3.74Zm14.98,21.77h6.09v-30.66h-6.09v30.66Zm30.66-21.77h6.09c0-5.62-4.68-9.36-11-9.36s-11,3.98-11,9.6c0,3.98,2.11,7.02,6.32,8.19,2.81.7,6.09.47,7.96,1.17,1.17.47,2.11,1.4,2.11,2.81,0,2.34-1.87,3.98-5.15,3.98-3.04,0-5.62-1.64-5.62-3.98h-6.09c0,5.85,4.92,9.83,11.47,9.83s11.23-4.21,11.23-10.06c0-4.21-2.34-7.02-6.32-8.19-3.04-.94-5.85-.47-7.96-1.17-1.4-.47-2.11-1.4-2.11-2.81,0-2.11,1.87-3.74,4.92-3.74s4.92,1.64,5.15,3.74Z"/>
  <g>
    <path class="cls-3" d="m173.03,127.68h-3.43v-12.07c0-1.88-.53-3.38-1.58-4.48s-2.49-1.65-4.3-1.65c-1.3,0-2.46.29-3.49.87s-1.85,1.39-2.45,2.44-.9,2.26-.9,3.64v11.26h-3.43v-20.92h2.99l.13,3.39c.77-1.23,1.83-2.17,3.19-2.82s2.89-.98,4.59-.98c2.66,0,4.78.8,6.34,2.41s2.34,3.77,2.34,6.49v12.45Z"/>
    <path class="cls-3" d="m197.45,125.11c-2.59,1.99-5.45,2.99-8.58,2.99-2.18,0-4.13-.49-5.86-1.46s-3.09-2.3-4.09-3.99-1.5-3.58-1.5-5.7.46-3.85,1.38-5.45,2.18-2.86,3.79-3.78,3.42-1.38,5.46-1.38,3.94.5,5.53,1.51,2.84,2.4,3.73,4.18,1.34,3.85,1.34,6.19v.67h-17.51c.25,1.23.75,2.29,1.51,3.2s1.7,1.61,2.83,2.11,2.4.75,3.8.75c2.4,0,4.59-.79,6.57-2.36l1.59,2.51Zm-16.42-9.14h14.39c-.15-1.3-.55-2.43-1.2-3.4s-1.49-1.73-2.51-2.27-2.18-.82-3.46-.82-2.47.27-3.5.82-1.88,1.3-2.53,2.27-1.04,2.1-1.18,3.4Z"/>
    <path class="cls-3" d="m214.98,127.18c-1.38.61-2.73.92-4.04.92s-2.36-.28-3.31-.83-1.69-1.33-2.22-2.32-.8-2.16-.8-3.48v-11.63h-3.66v-3.08h3.83v-5.23h3.26v5.23h6.26v3.08h-6.26v11c0,1.26.34,2.27,1.01,3.03s1.57,1.15,2.67,1.15c.89,0,1.79-.27,2.68-.8l.56,2.95Z"/>
    <path class="cls-3" d="m240.94,127.68h-3.98l-4.73-15.98-4.73,15.98h-3.98l-6.67-20.92h3.64l5,16.74,5.13-16.74h3.22l5.13,16.74,5.02-16.74h3.64l-6.69,20.92Z"/>
    <path class="cls-3" d="m260.69,128.1c-2.08,0-3.95-.47-5.61-1.42s-2.97-2.24-3.92-3.88-1.43-3.5-1.43-5.58.48-3.92,1.43-5.55,2.26-2.94,3.92-3.89,3.53-1.43,5.61-1.43,3.94.48,5.59,1.43,2.94,2.25,3.89,3.89,1.42,3.49,1.42,5.55-.47,3.94-1.42,5.58-2.25,2.93-3.89,3.88-3.51,1.42-5.59,1.42Zm-.02-3.1c1.41,0,2.67-.34,3.79-1.03s2-1.61,2.65-2.78.97-2.5.97-3.98-.32-2.8-.97-3.98-1.53-2.1-2.65-2.78-2.38-1.03-3.79-1.03-2.67.34-3.8,1.03-2.01,1.61-2.66,2.78-.97,2.5-.97,3.98.32,2.8.97,3.98,1.53,2.1,2.66,2.78,2.39,1.03,3.8,1.03Z"/>
    <path class="cls-3" d="m279.83,127.68h-3.43v-20.92h3.01l.15,4.14c.73-1.44,1.75-2.56,3.06-3.36s2.83-1.2,4.55-1.2c.38,0,.76.02,1.15.06s.78.1,1.17.19l-.42,3.1c-.77-.18-1.53-.27-2.28-.27-1.37,0-2.58.33-3.63,1s-1.87,1.59-2.46,2.76-.88,2.52-.88,4.04v10.46Z"/>
    <path class="cls-3" d="m296.49,127.68h-3.43v-31.38h3.43v22.09l1.63-1.99,9.1-9.64h4.31l-8.54,9.08,9.85,11.84h-4.46l-7.78-9.33-4.12,4.39v4.94Z"/>
  </g>
</svg>