<?xml version="1.0" encoding="UTF-8"?>
<svg id="Layer_1" data-name="Layer 1" xmlns="http://www.w3.org/2000/svg" viewBox="0 0 700.69 240">
  <defs>
    <style>
      .cls-1, .cls-2 {
        fill: #939393;
        stroke-width: 0px;
      }

      .cls-2 {
        fill-rule: evenodd;
      }
    </style>
  </defs>
  <path class="cls-1" d="m253.84,116.2c0,28.91,21.3,51.74,51.74,51.74s51.74-22.83,51.74-51.74-21.3-51.74-51.74-51.74-51.74,22.83-51.74,51.74Zm19.78,0c0-18.26,12.93-31.96,31.96-31.96s31.96,13.7,31.96,31.96-12.93,31.96-31.96,31.96-31.96-13.7-31.96-31.96Zm164.35,49.46h19.78l-32.72-99.67h-19.78l-32.72,99.67h19.78l4.57-14.46h37.28l3.8,14.46Zm-35.76-32.72l12.17-38.04,12.17,38.04h-24.35Zm127.07-38.04h19.78c0-18.26-15.22-30.43-35.76-30.43s-35.76,12.93-35.76,31.2c0,12.93,6.85,22.83,20.54,26.63,9.13,2.28,19.78,1.52,25.87,3.8,3.8,1.52,6.85,4.57,6.85,9.13,0,7.61-6.09,12.93-16.74,12.93-9.89,0-18.26-5.33-18.26-12.93h-19.78c0,19.02,15.98,31.96,37.28,31.96s36.52-13.7,36.52-32.72c0-13.7-7.61-22.83-20.54-26.63-9.89-3.04-19.02-1.52-25.87-3.8-4.57-1.52-6.85-4.57-6.85-9.13,0-6.85,6.09-12.17,15.98-12.17s16.74,5.33,16.74,12.17Zm48.7,70.76h19.78v-99.67h-19.78v99.67Zm99.67-70.76h19.78c0-18.26-15.22-30.43-35.76-30.43s-35.76,12.93-35.76,31.2c0,12.93,6.85,22.83,20.54,26.63,9.13,2.28,19.78,1.52,25.87,3.8,3.8,1.52,6.85,4.57,6.85,9.13,0,7.61-6.09,12.93-16.74,12.93-9.89,0-18.26-5.33-18.26-12.93h-19.78c0,19.02,15.98,31.96,37.28,31.96s36.52-13.7,36.52-32.72c0-13.7-7.61-22.83-20.54-26.63-9.89-3.04-19.02-1.52-25.87-3.8-4.57-1.52-6.85-4.57-6.85-9.13,0-6.85,6.09-12.17,15.98-12.17s15.98,5.33,16.74,12.17Z"/>
  <path class="cls-2" d="m166.85,65.22c-13.7-17.5-34.24-28.91-56.3-28.91-43.37,0-75.33,40.33-75.33,83.7,0,30.43,20.54,53.26,42.61,53.26,2.28,0,4.57,0,6.09-.76-15.22-10.65-24.35-31.2-24.35-52.5,0-34.24,23.59-61.63,50.98-61.63,29.67,0,50.98,29.67,50.98,61.63,0,23.59-8.37,46.41-22.83,63.91-12.93,15.22-29.67,24.35-47.93,27.39h3.8c50.22,0,91.3-41.09,91.3-91.3-.76-20.54-7.61-39.57-19.02-54.78Zm-13.7,54.78c0-30.43-20.54-53.26-42.61-53.26-2.28,0-3.8,0-6.09.76,15.22,10.65,24.35,31.2,24.35,52.5,0,34.24-23.59,61.63-50.98,61.63-29.67,0-50.98-29.67-50.98-61.63,0-23.59,8.37-46.41,22.83-63.91,12.93-15.22,29.67-24.35,47.93-27.39h-3.8C43.59,28.7,2.5,69.78,2.5,120c0,20.54,6.85,39.57,18.26,54.78,13.7,17.5,34.24,28.91,56.3,28.91,44.13.76,76.09-39.57,76.09-83.7Z"/>
</svg>