<?xml version="1.0" encoding="UTF-8"?>
<svg id="Layer_1" data-name="Layer 1" xmlns="http://www.w3.org/2000/svg" xmlns:xlink="http://www.w3.org/1999/xlink" viewBox="0 0 841.6 467.6">
  <defs>
    <style>
      .cls-1 {
        fill: url(#_未命名的渐变_5);
      }

      .cls-1, .cls-2, .cls-3, .cls-4 {
        stroke-width: 0px;
      }

      .cls-2 {
        fill: url(#_未命名的渐变_7);
      }

      .cls-3 {
        fill: #939393;
      }

      .cls-4 {
        fill: url(#_未命名的渐变_6);
      }
    </style>
    <linearGradient id="_未命名的渐变_7" data-name="未命名的渐变 7" x1="59.37" y1="126.54" x2="247.54" y2="359.17" gradientTransform="translate(0 -90)" gradientUnits="userSpaceOnUse">
      <stop offset="0" stop-color="#959595"/>
      <stop offset="1" stop-color="#525252"/>
    </linearGradient>
    <linearGradient id="_未命名的渐变_6" data-name="未命名的渐变 6" x1="233.51" y1="-14.32" x2="421.68" y2="218.3" gradientTransform="translate(0 -90)" gradientUnits="userSpaceOnUse">
      <stop offset="0" stop-color="#959595"/>
      <stop offset="1" stop-color="#525252"/>
    </linearGradient>
    <linearGradient id="_未命名的渐变_5" data-name="未命名的渐变 5" x1="-7.56" y1="180.68" x2="180.62" y2="413.3" gradientTransform="translate(0 -90)" gradientUnits="userSpaceOnUse">
      <stop offset="0" stop-color="#959595"/>
      <stop offset="1" stop-color="#525252"/>
    </linearGradient>
  </defs>
  <g>
    <path class="cls-3" d="m494.2,179.3c0-.9-.3-1.4-1.2-1.4h-18.3c-.9,0-1.3.4-1.3,1.3v6.5c-5.5-5.1-8.7-7.2-13.5-8.4-12-3-22.6-.2-31.6,8-11.3,10.5-14.7,23.7-11.5,38.5,3.8,17.3,19.4,30.5,38.3,28.5,6.2-.7,11.8-3,16.3-7.4.5-.5.8-1.3,1.9-1.1-.1,4.2.3,8.3-.5,12.5-1.5,7.1-6.7,12-14.1,12.8-7.7.9-15-1.3-18.4-8.5-1-2.1-2.1-2.7-4.2-2.6-3.9.2-7.8,0-11.7.1-1.8,0-3.5-.3-5.3.2-.2,1.4,0,2.6.3,3.8,2.7,10.9,9.8,17.9,20.1,21.7,10,3.7,20.2,3.8,30.3.7,12.1-3.6,19.7-11.6,22.8-23.8,1-3.9,1.4-7.8,1.4-11.9v-67.8c.2-.5.2-1.1.2-1.7Zm-38.2,54.5c-12-.1-19.3-9.2-19.3-19.4.1-11,8.2-19.2,19-19.3,11-.1,19.2,8.2,19.2,19.4.1,10.9-8.1,19.4-18.9,19.3Z"/>
    <path class="cls-3" d="m739.4,185.6c-12.9-12.5-32.9-12.6-44.2-.5-.2.2-.4.2-.8-.1,0-1.5-.1-3.3,0-5s-.6-2.1-2.2-2.1c-5,.1-10.1,0-15.1,0-4,0-3.5-.4-3.5,3.5v101.6c.1,2.1.1,2.2,2.3,2.2h16.1c2.3,0,2.4,0,2.4-2.5v-37.3c3.4,3.7,6.8,6.1,10.8,7.7,12.2,4.8,26.6,1.3,36-9,5.9-6.4,9.3-14,10.4-22.5,1.5-13.9-2-26.2-12.2-36Zm-9.7,37.5c-2.5,8-9.3,13-17.7,13-9.6,0-17.1-6.2-18.8-15.8-.7-3.9-.6-7.7.6-11.5,2.6-8.7,10-14.1,18.8-13.7,9,.4,16,6.6,17.8,15.5.7,4.3.6,8.4-.7,12.5Z"/>
    <path class="cls-3" d="m509,82.1c7.9-9.1,17.5-11.2,28-9.3,12,2.2,18.7,10.1,21.6,21.6.9,3.6,1.3,7.2,1.3,10.9v42.2c.2,1.5-.4,2.2-1.9,2h-16c-2.8,0-2.8.2-2.8-2.7v-37.6c0-2.3-.2-4.6-.7-6.9-1.9-9.6-10.5-13.9-19.5-9.9-3.6,1.6-6.1,4.4-7.7,8-1.8,4-2.3,8.3-2.3,12.6v33.8q0,2.6-2.5,2.6h-16.1q-2.1-.1-2.2-2.4V39.4c0-.5.1-1.1,0-1.6-.2-1.7.6-2.1,2.2-2.1,5.4.1,10.7,0,16.1,0,2.5,0,2.6,0,2.6,2.6v39.7c-.1,1.3-.1,2.3-.1,4.1Z"/>
    <path class="cls-3" d="m791.1,185.4c9.3-9.7,20.4-11.4,32.3-7.3,10.2,3.5,15.2,11.7,17.4,21.9.7,3.2.8,6.5.8,9.7v42.3c0,1-.3,1.6-1.4,1.6h-18c-.9,0-1.4-.4-1.4-1.3v-38.8c0-2.5-.1-5-.7-7.5-1.2-4.9-3.6-8.9-8.7-10.3-5.4-1.5-10.5-.3-14.6,3.6-4,3.7-5.4,8.7-5.8,13.9-.2,2.3-.1,4.6-.1,6.9v30.6q0,2.8-2.7,2.8h-15.8q-2.3,0-2.4-2.5v-107.6c0-4.1-.4-3.5,3.5-3.5h14.2c3.4,0,3.1-.2,3.1,3v39.1c.1,1.1-.1,2.2.3,3.4Z"/>
    <path class="cls-3" d="m648.8,177.8c-5.8,0-11.6.1-17.4,0-1.5,0-1.8.6-1.7,1.9.1,1.8,0,3.5,0,5.9-.8-.6-1-.8-1.3-1-5.8-6.1-13.1-8.7-21.3-8.4-10.6.3-19.3,4.9-25.8,13.2-8.5,10.8-10.8,23.1-7.8,36.3,2.5,11.2,8.6,20,18.8,25.6,11.6,6.4,27.5,5,36.3-4.8.2-.2.5-.4,1,.1,0,1.5.1,3.3,0,5.1-.1,1.5.6,2,2.1,1.9,5-.1,10.1,0,15.1,0,3.8,0,3.6.6,3.6-3.5v-70.6c.2-1.3-.4-1.7-1.6-1.7Zm-18.4,44.9c-2.6,8.6-9.6,13.6-18.7,13.4-8.6-.2-15.5-5.8-17.6-14.4-1.1-4.5-1-8.9.4-13.4,2.7-8.4,9.9-13.6,18.6-13.2,8.7.3,15.5,5.9,17.6,14.5.5,1.9.8,3.9.7,5.9.1,2.5-.3,4.9-1,7.2Z"/>
    <path class="cls-3" d="m655.2,102.5c-3.3-14-11.5-23.8-25.4-28.4-6-2-12.1-2.5-18.4-1.6-14.7,2-25.4,9.5-31.3,23.2-3.2,7.5-3.9,15.4-2.4,23.5,2.3,12.6,8.7,22.4,20.5,27.8,14.8,6.8,29.4,5.7,43.2-3.1,5.9-3.8,10.2-9.1,12.9-15.5.4-1,1.1-2,.9-3.5h-20.1c-1,0-1.5.6-1.9,1.3-1.2,1.9-2.9,3.3-4.8,4.4-4.2,2.3-8.7,3-13.4,2.5-9.7-1-16.1-6.9-17.2-16.1,1.3-.5,2.5-.3,3.6-.3h53c2.2,0,2.2-.1,2.3-2.2-.1-4.1-.6-8.1-1.5-12Zm-56.6.2c1-8.1,8.9-13.9,18.2-13.7,8.4.2,15.8,6.4,16.4,13.7h-34.6Z"/>
    <path class="cls-3" d="m470.4,130.9v16.5c0,1.5-1,1.7-2,1.9-3.5.9-7.1,1.1-10.6,1.1-5.1,0-10.1-.6-14.7-2.8-8.1-3.7-12.7-10-14.3-18.7-.4-2.3-.5-4.6-.5-6.9v-27.4c0-2.5,0-2.6-2.6-2.6-3.6,0-7.1-.1-10.7,0-1.5,0-2-.4-2-2,.1-4.8.1-9.7,0-14.5,0-1.4.5-1.8,1.8-1.8,3.8.1,7.6-.1,11.3.1,1.7,0,2.2-.5,2.2-2.1-.1-5.5,0-10.9,0-16.4,0-2.4,0-2.5,2.4-2.5h16.4c1.5,0,2,.4,2,2-.1,5.3,0,10.5,0,15.8,0,3.6-.3,3.3,3.5,3.3h15.8c1.5,0,2.3.3,2.2,2.1-.1,4.7-.1,9.5,0,14.2,0,1.8-.7,2.1-2.2,2-5.6-.1-11.1,0-16.7,0-2.4,0-2.5,0-2.5,2.4v23.9c0,1.7.2,3.4.5,5,.8,4.3,3.3,6.9,7.5,7.9,3.9.9,7.7.6,11.5-.3.4-.3.9-.5,1.7-.2Z"/>
    <path class="cls-3" d="m537.9,188.3c1.2-.7,1.4-1.7,1.9-2.4,5-7.1,13.1-10.3,22.2-8.5,1,.2,1.7.6,1.7,1.9v19.3c-1.7.1-3-.5-4.4-.8-10.8-2.3-18.9,3.2-20.9,14.1-.4,2-.5,3.9-.5,5.9v31.8c0,.6-.1,1.3,0,1.9.2,1.7-.7,2.1-2.2,2.1-5.5-.1-10.9,0-16.4,0-2.2,0-2.2-.1-2.2-2.3v-71.2c0-1.6.4-2.2,2.1-2.2,5.6.1,11.1.1,16.7,0,1.7,0,2.1.7,2.1,2.2-.1,2.5-.1,5.2-.1,8.2Z"/>
  </g>
  <g>
    <path class="cls-2" d="m156,312c-21.1,0-41.5-4.1-60.7-12.3-18.6-7.9-35.3-19.1-49.6-33.4-14.3-14.3-25.6-31-33.4-49.6C4.2,197.4,0,177,0,156s4.1-41.5,12.3-60.7c7.9-18.6,19.1-35.3,33.4-49.6,14.3-14.3,31-25.6,49.6-33.4C114.6,4.2,135,0,156,0s41.5,4.1,60.7,12.3c18.6,7.9,35.3,19.1,49.6,33.4,14.3,14.3,25.6,31,33.4,49.6,8.1,19.3,12.3,39.7,12.3,60.7s-4.1,41.5-12.3,60.7c-7.9,18.6-19.1,35.3-33.4,49.6-14.3,14.3-31,25.6-49.6,33.4-19.2,8.1-39.6,12.3-60.7,12.3Zm0-261.6c-58.2,0-105.5,47.3-105.5,105.5s47.4,105.6,105.6,105.6,105.6-47.4,105.6-105.6c-.1-58.2-47.5-105.5-105.7-105.5Z"/>
    <circle class="cls-4" cx="338.2" cy="25.1" r="24.6"/>
    <path class="cls-1" d="m181.9,467.6c-6.5,0-12.9-2.5-17.8-7.4-9.9-9.9-9.9-25.8,0-35.7l105-105c9.9-9.9,25.8-9.9,35.7,0,9.9,9.9,9.9,25.8,0,35.7l-105,105c-5,5-11.5,7.4-17.9,7.4Z"/>
  </g>
</svg>