<?xml version="1.0" encoding="UTF-8"?>
<svg id="Layer_1" data-name="Layer 1" xmlns="http://www.w3.org/2000/svg" viewBox="0 0 700.69 200.43">
  <defs>
    <style>
      .cls-1 {
        fill: #939393;
      }

      .cls-1, .cls-2 {
        stroke-width: 0px;
      }

      .cls-2 {
        fill: #fff;
        fill-rule: evenodd;
      }
    </style>
  </defs>
  <circle class="cls-1" cx="322.82" cy="100.43" r="100"/>
  <g id="Symbols">
    <path id="Fill-19" class="cls-2" d="m321.36,113.34c-14.79,0-26.67-11.87-26.67-26.67s11.87-26.67,26.67-26.67,26.67,11.87,26.67,26.67-11.87,26.67-26.67,26.67m0-66.67c22.08,0,40,17.92,40,40s-17.92,40-40,40-40-17.92-40-40,17.92-40,40-40Zm38.13,82.08c2.71,2.71,2.71,6.88,0,9.38l-26.67,26.67c-2.71,2.71-6.88,2.71-9.38,0-2.71-2.71-2.71-6.88,0-9.38l26.67-26.67c2.5-2.71,6.88-2.71,9.38,0Zm15.42-75.42c0,3.75-2.92,6.67-6.67,6.67s-6.67-2.92-6.67-6.67,2.92-6.67,6.67-6.67c3.54,0,6.67,2.92,6.67,6.67Z"/>
  </g>
</svg>