<?xml version="1.0" encoding="UTF-8"?>
<svg id="_图层_1" data-name="图层 1" xmlns="http://www.w3.org/2000/svg" viewBox="0 0 200 200">
  <defs>
    <style>
      .cls-1 {
        fill: #6a5f93;
        stroke-width: 0px;
      }
    </style>
  </defs>
  <path class="cls-1" d="m81.79,81.92c-2.17-4.29-.99-9.52,2.81-12.46,2.8-2.17,5.6-4.34,8.41-6.51,4.38-3.39,10.69-2.59,14.08,1.79,3.39,4.38,2.59,10.69-1.79,14.08-2.8,2.17-5.6,4.34-8.41,6.51-.7.55-1.45.98-2.27,1.32.7-2.11.78-4.38.23-6.54,2.39-1.85,4.77-3.7,7.16-5.54,2.04-1.58,2.41-4.5.83-6.54-1.58-2.04-4.5-2.41-6.54-.83-2.8,2.17-5.6,4.34-8.41,6.51-.22.17-.42.36-.6.56-.2.22-.37.47-.53.72-.17.27-.31.56-.42.86-.12.31-.22.63-.29.95-.07.33-.12.66-.13,1-.02.33-.01.66.02.98.06.6.2,1.19.44,1.74.08.19.14.38.2.58.06.22.1.44.12.67.02.24.03.49.01.73-.01.25-.05.5-.1.74-.05.24-.12.47-.21.69-.07.17-.15.34-.24.51-1.45-.84-2.91-1.68-4.36-2.52Z"/>
  <path class="cls-1" d="m77.37,75.06c.7-.55,1.45-.98,2.27-1.32-.24.72-.4,1.44-.49,2.19-.18,1.46-.09,2.93.27,4.35-.07.05-.14.11-.2.16-1.68-.97-3.35-1.94-5.03-2.9,1.06-.82,2.13-1.65,3.19-2.47Z"/>
  <path class="cls-1" d="m70.49,90.1c.27,2.1,1.93,3.75,4.04,4.02.81.1,1.63,0,2.38-.32,1.73,1,3.45,1.99,5.18,2.99-.27.21-.55.43-.82.64-3.37,2.61-8.02,2.81-11.6.49-3.58-2.32-5.3-6.64-4.3-10.79,1.71.99,3.42,1.98,5.13,2.96Z"/>
  <path class="cls-1" d="m87.58,85.26c.13-.23.25-.48.35-.73.12-.31.22-.63.29-.95.07-.33.12-.66.13-1,.02-.33.01-.66-.02-.98-.06-.6-.2-1.19-.44-1.74-.08-.19-.14-.38-.2-.58-.06-.22-.1-.44-.12-.67-.02-.24-.03-.49-.01-.73.01-.25.05-.5.1-.74.05-.24.12-.47.21-.69.08-.21.18-.41.3-.6.1-.17.22-.33.35-.48.11-.13.24-.25.38-.35.11-.09.23-.18.34-.26,4.26,2.96,5.56,8.69,3,13.2-1.55-.9-3.11-1.79-4.66-2.69Z"/>
  <path class="cls-1" d="m121.5,80.02c-2.8-8.68.84-18.15,8.74-22.71,7.9-4.56,17.92-2.99,24.04,3.78,3.03-1.75,6.06-3.5,9.08-5.24-5.95-7.66-15.27-11.92-24.96-11.43-9.69.49-18.52,5.69-23.67,13.91-1-.13-2-.26-3-.38-1.05,8.21-2.11,16.41-3.16,24.62,1,.13,2,.26,3,.38.24.78.52,1.55.83,2.31,3.03-1.75,6.06-3.5,9.08-5.24Z"/>
  <path class="cls-1" d="m129.27,90.24c-3.2,1.85-6.41,3.7-9.61,5.55,9.55,8.91,23.8,10.53,35.1,4,11.31-6.53,17.02-19.68,14.08-32.4-3.2,1.85-6.4,3.7-9.61,5.55.43,7.31-3.3,14.24-9.64,17.9-6.34,3.66-14.21,3.43-20.33-.6Z"/>
  <path class="cls-1" d="m93.63,144.64c-4.91,8.49-13.7,14.01-23.48,14.75-9.78.74-19.29-3.4-25.41-11.05-6.13-7.65-8.08-17.84-5.22-27.22,2.86-9.38,10.17-16.74,19.52-19.67.13-1,.26-2,.38-3,8.21,1.05,16.41,2.11,24.62,3.16-.13,1-.26,2-.38,3,4.12,2.57,7.54,6.12,9.97,10.32v29.72Zm-44.91-17.31c-.65,5.1.75,10.23,3.9,14.29,3.15,4.07,7.76,6.7,12.86,7.35,5.1.65,10.23-.75,14.29-3.9,4.07-3.15,6.7-7.76,7.35-12.86.65-5.1-.75-10.23-3.9-14.29-3.15-4.07-7.76-6.7-12.86-7.35-5.1-.65-10.23.75-14.29,3.9-4.07,3.15-6.7,7.76-7.35,12.86Z"/>
  <path class="cls-1" d="m163.52,151.93c-.2,0-.4-.05-.58-.16l-53.97-31.16c-.56-.32-.75-1.04-.43-1.6.32-.56,1.04-.75,1.6-.43l53.97,31.16c.56.32.75,1.04.43,1.6-.22.38-.61.59-1.02.59Z"/>
  <path class="cls-1" d="m100,51.93c-.65,0-1.17-.52-1.17-1.17V12.14c0-.65.53-1.17,1.17-1.17s1.17.52,1.17,1.17v38.62c0,.65-.53,1.17-1.17,1.17Z"/>
  <path class="cls-1" d="m182.27,52.29l-12.82,102.4-69.45,40.1-69.45-40.1-12.82-102.4L100,4.79l82.27,47.5Zm-79.09,49.34v83.97l60.34-34.84,11.33-90.51-71.67,41.38Zm-6.37,83.97v-83.97L25.14,60.25l11.33,90.51,60.34,34.84ZM27.28,54.13l72.72,41.98,72.72-41.98L100,12.14,27.28,54.13Z"/>
</svg>