<?xml version="1.0" encoding="UTF-8"?>
<svg id="Layer_1" data-name="Layer 1" xmlns="http://www.w3.org/2000/svg" viewBox="0 0 700.69 273.26">
  <defs>
    <style>
      .cls-1 {
        fill: #5e5e5e;
      }

      .cls-1, .cls-2, .cls-3, .cls-4, .cls-5, .cls-6, .cls-7, .cls-8, .cls-9, .cls-10, .cls-11 {
        stroke-width: 0px;
      }

      .cls-3 {
        fill: #939393;
      }

      .cls-4 {
        fill: #a7a7a7;
      }

      .cls-5 {
        fill: #2b2b2b;
      }

      .cls-6 {
        fill: #fff;
      }

      .cls-7 {
        fill: #888;
      }

      .cls-8 {
        fill: #d1d1d1;
      }

      .cls-9 {
        fill: #5d5d5d;
      }

      .cls-10 {
        fill: #3e3e3e;
      }

      .cls-11 {
        fill: #383838;
      }
    </style>
  </defs>
  <g>
    <path class="cls-10" d="m71.75,140.43c-.96-5.66-2.19-11.18-4.97-15.56-3.79-5.98-10.4-10.04-23.54-10.13l-.18,7.48c4.65-.14,9.12.32,12.91,2.69,3.24,2.05,5.98,5.43,8.03,11.04-11.41-3.88-17.88-2.69-22.49.23-2.37,1.55-4.24,3.6-6.11,5.66l5.2,4.74c.32-.46.64-.82.91-1.19,5.57-6.62,12.04-6.39,18.84-2.74-14.78,7.12-17.15,19.62-16.38,28.65.68.09,7.25,0,7.25,0-.64-8.76,5.61-20.53,18.61-24.09l1.96-3.97-.05-2.83Z"/>
    <path class="cls-9" d="m169.06,63.1c21.9-30.39,32.71-45.49,24.04-52.79-5.75-4.79-13.46-1.41-25.96,7.94-.46,9.99-2.83,24.18-6.07,43.07l7.98,1.78Z"/>
    <path class="cls-5" d="m182.93,245.32h-8.03c-.18,11.5.09,23.31-12.18,27.1.41.05.82.09,1.32.14,1.32.14,2.6.05,3.83-.23,15.19-3.88,14.83-15.6,15.06-27.01Z"/>
    <path class="cls-11" d="m191.6,245.32l-8.49-20.07h7.89l-6.62-18.98h-11l5.11,18.98h-6.11l6.52,20.07h12.68Z"/>
    <path class="cls-10" d="m162.72,272.42c12.27-3.79,11.95-15.56,12.18-27.1h-29.11c-.18,17.11,5.98,25.46,16.93,27.1Z"/>
    <path class="cls-1" d="m172.39,225.25h6.07l-5.11-18.89-29.61-.14-6.89,19.62,7.48.55-7.48,18.89h42.11l-6.57-20.03Z"/>
    <path class="cls-11" d="m110.98,225.98l-7.85-19.89-11-.05,5.43,19.53h-6.2l6.71,20.26,13.92.14-9.67-20.07,8.67.09Z"/>
    <path class="cls-1" d="m91.32,225.52h6.2l-5.38-19.53-30.07-.14-7.25,20.26,7.66.55-7.66,19.07,43.21.09-6.71-20.3Z"/>
    <path class="cls-7" d="m159.89.28c-11.82-2.83-18.66,15.97-35.77,52.79l36.96,8.21c3.19-18.84,5.61-33.08,6.07-43.07.46-10.63-1.41-16.42-7.25-17.93Z"/>
    <path class="cls-4" d="m182.47,186.92l9.76.64-10.4-20.76h8.53l-7.71-18.84h-12.36l6.93,18.84h-7.66l9.35,20.76-8.76-.64,9.35,19.44,13.32.05-10.36-19.48Z"/>
    <path class="cls-9" d="m192.24,128.53l-7.16-20.07h-13.87l5.89,20.07h-8.53l7.48,19.48h14.87l-9.12-19.48h10.45Z"/>
    <path class="cls-8" d="m124.17,53.11c-.05.09-.05,0,0,0l-16.42,32.67,9.08.18-10.9,22.49h79.02l-10.22-4.33c-1.55-.64-2.46-1.87-2.1-2.69.05-.09.09-.14.14-.18.46-.68,1.87-.78,3.28-.18l.46.18,7.16,3.06,6.2,2.6v-39.14l-65.7-14.65Z"/>
    <path class="cls-6" d="m163.91,90.34c4.97,0,9.03-4.01,9.03-9.08s-4.01-9.08-9.03-9.08-9.03,4.01-9.03,9.08c.05,5.06,4.11,9.08,9.03,9.08Zm0-13.55c2.46,0,4.52,2.05,4.52,4.52s-2.05,4.52-4.52,4.52-4.52-2.05-4.52-4.52c.05-2.46,2.05-4.52,4.52-4.52Z"/>
    <path class="cls-2" d="m164.23,85.82c2.46-.14,4.33-2.28,4.24-4.79-.14-2.46-2.28-4.43-4.79-4.24-2.46.14-4.33,2.28-4.24,4.79.14,2.46,2.33,4.38,4.79,4.24Z"/>
    <path class="cls-2" d="m189.82,108.45v-1.6l-13.37-5.75-.46-.18c-1.41-.55-2.74-.46-3.28.18-.05.05-.09.14-.14.18-.32.82.55,2.1,2.1,2.69l10.22,4.33h.18l4.74.14Z"/>
    <path class="cls-7" d="m168.61,128.53h8.49l-5.89-20.07h-55.71l-8.44,20.07h8.49l-8.03,19.44h.09v.05h68.39l-7.39-19.48Z"/>
    <path class="cls-8" d="m107.52,147.96l-35.68-4.79-10.9,22.22h7.25c-.68.91-1.46,1.96-2.14,3.01l10.04,9.4,13-12.32,12.68,12.59,13-12.32,13,12.32,12.68-12.59.41.41,12.55,11.86,13-12.32,4.97,4.88-1.55-3.47h7.71l-6.93-18.89h-62.91"/>
    <path class="cls-8" d="m170.2,186.92l8.76.55-1.82-3.92-10.95-10.95-12.91,13-13-13-12.91,13.05-12.68-12.68-13,12.32-12.55-12.5-12.91,13-12.91-12.91c-.82,1.41-5.89,10.22-7.66,13.55l9.9.55-8.9,18.89,123.05.55-9.49-19.48Z"/>
    <path class="cls-2" d="m171.25,170.32l-4.97-4.97-13,12.32-13-12.32-12.64,12.59-13-12.32-12.96,12.32-12.68-12.59-13,12.32-10.04-9.4c-.91,1.41-1.96,2.83-2.83,4.47l12.91,12.91,12.91-13,12.55,12.5,13-12.32,12.68,12.68,13-13,13,13,12.91-13,10.95,10.95-5.79-13.14Z"/>
    <path class="cls-5" d="m94.01,245.73c-.18,11.59.14,23.45-12.18,27.28.73.09,1.51.18,2.28.23.64.05,1.37,0,1.96-.14.55-.14,1.19-.32,1.69-.46.78-.23,1.6-.46,2.28-.73.46-.18.91-.41,1.41-.55.32-.14.55-.32.82-.46.27-.14.55-.32.78-.46.41-.23.78-.46,1.19-.73.23-.14.46-.32.68-.46.46-.41.96-.78,1.41-1.19.46-.46.87-.91,1.32-1.41.14-.18.32-.32.46-.55.18-.23.32-.46.46-.73.32-.46.55-1,.82-1.51.14-.23.23-.55.41-.78.05-.14.14-.32.18-.46.09-.18.14-.46.23-.64.05-.09.09-.18.09-.32.14-.46.32-.87.41-1.37,0-.09.05-.18.05-.23.09-.32.14-.55.18-.87,0-.05.05-.14.05-.18.05-.32.14-.68.18-1.05.05-.18.05-.41.09-.55.05-.18.05-.46.09-.64.14-1,.23-1.96.32-3.01.09-1.28.14-2.46.14-3.74.05-1.37.05-2.69.09-4.01l-7.89-.32Z"/>
    <path class="cls-10" d="m64.86,245.73c-.05,3.33.14,6.39.55,9.08.14,1.09.32,2.05.55,3.01.14.64.32,1.28.46,1.82,2.51,8.03,7.76,12.27,15.28,13.41,12.32-3.83,11.95-15.69,12.18-27.28h-29.06v-.05h.05Z"/>
    <path class="cls-11" d="m219.16,88.61c-2.97,7.48-12.73,13.55-29.47,15.01v4.84c1.19-.05,2.19-.14,3.28-.18,1.32-.09,2.51-.23,3.74-.46,1.09-.14,2.14-.32,3.15-.55,4.52-.91,8.26-2.33,11.27-4.11.64-.41,1.32-.78,1.82-1.19.32-.18.55-.41.82-.64.78-.64,1.55-1.37,2.19-2.05.46-.46.78-.91,1.19-1.46.82-1.28,1.51-2.51,1.87-3.83.5-1.69.55-3.51.14-5.38Z"/>
    <path class="cls-1" d="m193.42,68.62c-1.19-.32-2.33-.64-3.6-.87v35.91c16.7-1.51,26.46-7.62,29.47-15.01-1.55-7.66-10.13-15.65-25.87-20.03Z"/>
  </g>
  <g>
    <path class="cls-3" d="m352.38,103.39c5.75,5.02,8.62,11.95,8.62,20.9s-2.83,15.83-8.62,20.9c-5.75,5.02-13.69,7.57-23.77,7.57h-18.57v31.21h-18.43v-88.05h37c10.13,0,18.02,2.51,23.77,7.48Zm-10.08,20.9c0-9.26-5.52-13.87-16.52-13.87h-15.74v27.78h15.74c11,0,16.52-4.65,16.52-13.92Z"/>
    <path class="cls-3" d="m369.76,97.91c0-6.62,3.79-9.9,11.36-9.9s11.36,3.28,11.36,9.9-3.79,9.76-11.36,9.76-11.36-3.33-11.36-9.76Zm20.44,86.05h-18.25v-66.75h18.25v66.75Z"/>
    <path class="cls-3" d="m462.74,122.14c4.43,4.15,6.62,10.17,6.62,18.02v43.8h-18.25v-38.6c0-10.04-4.01-15.06-12.04-15.06-4.24,0-7.85,1.51-10.81,4.47-2.97,3.01-4.43,7.62-4.43,13.82v35.36h-18.25v-66.75h16.42l.68,12.41c2.14-4.56,5.11-7.94,9.08-10.27,3.92-2.33,8.44-3.47,13.64-3.47,7.12.05,12.91,2.1,17.34,6.25Z"/>
    <path class="cls-3" d="m549.38,172.1l-1.05,11.36c-2.33,1.19-5.2,1.73-8.67,1.73-3.92-.09-7.25-.91-10.08-2.51s-4.7-3.92-5.66-6.93c-2.05,3.01-5.02,5.38-8.9,7.07-3.92,1.69-8.03,2.51-12.27,2.51-6.93,0-12.36-1.55-16.24-4.65s-5.84-7.57-5.84-13.32c0-4.88,1.6-8.9,4.74-12.04s7.76-5.38,13.82-6.62l22.99-4.65v-2.51c0-3.74-1.05-6.71-3.24-8.9s-5.02-3.24-8.62-3.24c-7.3,0-12.04,3.6-14.14,10.95l-15.6-4.79c1.6-6.07,4.97-10.81,10.13-14.33,5.11-3.47,11.95-5.2,20.39-5.2,8.99,0,16.06,2.14,21.4,6.39,5.25,4.24,7.85,10.31,7.85,18.34v26.92c0,3.38,1.6,5.11,4.79,5.11,1.46,0,2.92-.27,4.2-.68Zm-31.39-2.78c2.83-2.05,4.24-5.34,4.24-9.9v-4.11l-14.01,2.83c-3.28.64-5.66,1.46-7.07,2.51s-2.14,2.69-2.14,4.97c0,2.14.82,3.79,2.42,4.97,1.6,1.19,3.6,1.82,5.98,1.82,4.24-.05,7.8-1.1,10.58-3.1Z"/>
    <path class="cls-3" d="m602.9,179.85c-2.24,1.69-4.88,3.01-8.12,4.01-3.15.96-6.48,1.46-10.08,1.46-15.1,0-22.67-6.75-22.67-20.17v-34.31h-12.27v-13.64h12.27v-15.38l18.25-5.11v20.39h21.4v13.69h-21.4v31.39c0,6.16,3.06,9.22,9.22,9.22,4.01,0,7.48-1.28,10.4-3.74l3.01,12.18Z"/>
    <path class="cls-3" d="m678.72,172.1l-1.05,11.36c-2.33,1.19-5.2,1.73-8.67,1.73-3.92-.09-7.25-.91-10.08-2.51s-4.7-3.92-5.66-6.93c-2.05,3.01-5.02,5.38-8.9,7.07-3.92,1.69-8.03,2.51-12.27,2.51-6.93,0-12.36-1.55-16.24-4.65s-5.84-7.57-5.84-13.32c0-4.88,1.6-8.9,4.74-12.04,3.15-3.15,7.76-5.38,13.82-6.62l22.99-4.65v-2.51c0-3.74-1.05-6.71-3.24-8.9-2.19-2.19-5.02-3.24-8.62-3.24-7.3,0-12.04,3.6-14.14,10.95l-15.6-4.79c1.6-6.07,4.97-10.81,10.13-14.33,5.11-3.47,11.95-5.2,20.39-5.2,8.99,0,16.06,2.14,21.4,6.39,5.25,4.24,7.85,10.31,7.85,18.34v26.92c0,3.38,1.6,5.11,4.79,5.11,1.46,0,2.87-.27,4.2-.68Zm-31.39-2.78c2.83-2.05,4.24-5.34,4.24-9.9v-4.11l-14.01,2.83c-3.28.64-5.66,1.46-7.07,2.51s-2.14,2.69-2.14,4.97c0,2.14.82,3.79,2.42,4.97,1.6,1.19,3.6,1.82,5.98,1.82,4.2-.05,7.76-1.1,10.58-3.1Z"/>
  </g>
</svg>